<?xml version="1.0" standalone="no"?>
<!DOCTYPE svg PUBLIC "-//W3C//DTD SVG 20010904//EN"
 "http://www.w3.org/TR/2001/REC-SVG-20010904/DTD/svg10.dtd">
<svg version="1.0" xmlns="http://www.w3.org/2000/svg"
 width="428.000000pt" height="428.000000pt" viewBox="0 0 428.000000 428.000000"
 preserveAspectRatio="xMidYMid meet">
<metadata>
Created by potrace 1.11, written by Peter Selinger 2001-2013
</metadata>
<g transform="translate(0.000000,428.000000) scale(0.100000,-0.100000)"
fill="#000000" stroke="none">
<path d="M1275 2924 c-183 -17 -377 -57 -520 -108 -85 -30 -73 -32 37 -7 173
40 324 56 543 56 244 0 237 2 469 -107 293 -137 302 -140 646 -188 615 -86
927 -173 1265 -356 397 -214 379 -320 -80 -470 -77 -26 -219 -64 -315 -86 -96
-21 -185 -46 -198 -54 -13 -8 -38 -32 -57 -52 -44 -49 -126 -97 -217 -129
-108 -38 -162 -30 -381 51 -254 95 -279 100 -492 101 -125 0 -186 -4 -200 -12
-16 -10 0 -12 95 -13 231 -1 362 -29 594 -130 159 -69 182 -74 326 -62 109 9
130 14 194 46 39 19 97 58 130 86 32 28 66 55 75 60 9 5 86 22 170 39 278 57
642 193 720 271 41 41 43 103 6 166 -95 162 -604 400 -1091 509 -60 14 -243
47 -404 75 -417 72 -452 82 -722 204 -233 106 -242 108 -408 111 -80 2 -163 1
-185 -1z"/>
<path d="M720 2775 c-152 -38 -300 -137 -404 -268 -39 -49 -146 -242 -146
-263 0 -4 19 19 42 52 73 103 156 200 219 257 70 64 189 129 275 152 155 40
298 -5 345 -110 25 -55 24 -106 -3 -140 l-22 -28 -110 9 c-225 18 -334 4 -465
-58 -78 -37 -144 -102 -189 -185 -40 -75 -42 -99 -4 -47 46 62 125 130 189
163 102 51 172 65 318 61 226 -6 259 -4 303 19 54 28 76 62 76 120 -1 98 -79
208 -181 253 -58 26 -171 32 -243 13z"/>
<path d="M2196 2349 c-95 -14 -170 -56 -271 -151 -107 -102 -143 -122 -199
-115 -23 2 -115 36 -206 74 -290 124 -472 170 -705 180 -153 7 -247 -6 -332
-46 -150 -71 -197 -176 -128 -282 50 -77 210 -173 399 -238 244 -86 411 -111
777 -118 302 -6 435 3 632 43 114 23 195 50 117 40 -171 -24 -274 -28 -572
-23 -352 6 -474 18 -673 66 -324 79 -533 179 -585 282 -30 58 -26 86 19 129
58 55 135 74 296 73 234 -2 369 -36 657 -167 181 -82 224 -95 308 -96 99 0
122 12 247 132 141 135 166 148 293 148 316 -1 680 -80 1170 -255 96 -35 184
-66 195 -69 11 -4 -49 27 -132 68 -483 238 -1008 369 -1307 325z"/>
<path d="M198 1632 c34 -48 108 -108 197 -161 163 -98 156 -96 295 -96 l125 0
110 51 c121 56 180 77 270 95 55 11 58 12 35 22 -14 6 -64 11 -111 11 -85 1
-85 1 -202 -58 -107 -54 -123 -60 -196 -64 -58 -3 -92 0 -132 13 -108 36 -268
113 -326 157 -81 62 -90 66 -65 30z"/>
</g>
</svg>
