<?xml version="1.0" encoding="UTF-8" standalone="no"?>
<!-- Created with Inkscape (http://www.inkscape.org/) -->
<svg
   xmlns:svg="http://www.w3.org/2000/svg"
   xmlns="http://www.w3.org/2000/svg"
   version="1.0"
   width="1133.8583"
   height="215.43306"
   id="svg2">
  <defs
     id="defs4" />
  <g
     transform="translate(83.457581,-347.80358)"
     id="layer1">
    <g
       transform="matrix(1.1322043,0,0,1.1322043,46.466536,-29.721549)"
       id="g3278">
      <path
         d="M -51.450048,466.98903 L -42.471729,466.98903 C -36.637568,466.98903 -31.138784,461.79767 -31.138784,451.82021 C -31.138784,442.32485 -36.637568,437.02869 -42.471729,437.02869 L -51.450048,437.02869 L -51.450048,466.98903 z M -51.450048,415.334 L -43.680483,415.334 C -37.161594,415.334 -33.549305,409.48586 -33.549305,402.93902 C -33.549305,396.05681 -37.161594,390.1947 -43.680483,390.1947 L -51.450048,390.1947 L -51.450048,415.334 z M -83.457583,367.1026 L -35.100424,367.1026 C -12.176014,367.1026 -1.5208094,379.36482 -1.5208094,397.7826 C -1.5208094,410.82737 -7.21523,422.5446 -20.825943,425.31845 L -20.825943,425.66081 C -4.63702,427.21193 1.9237911,440.98334 1.9237911,453.71369 C 1.9237911,475.06602 -8.3750752,490.01126 -35.100424,490.01126 L -83.457583,490.01126 L -83.457583,367.1026 z"
         id="path2530"
         style="fill:#000000;fill-opacity:1;fill-rule:nonzero;stroke:none" />
      <path
         d="M 55.022342,470.77946 C 64.82513,470.77946 65.894144,461.79415 65.894144,428.56389 C 65.894144,395.38253 64.82513,386.39024 55.022342,386.39024 C 45.184619,386.39024 44.206436,395.38253 44.206436,428.56389 C 44.206436,461.79415 45.184619,470.77946 55.022342,470.77946 M 55.022342,364.69555 C 87.756527,364.69555 98.921784,382.60328 98.921784,428.56389 C 98.921784,474.57341 87.756527,492.46717 55.022342,492.46717 C 22.316105,492.46717 11.143862,474.57341 11.143862,428.56389 C 11.143862,382.60328 22.316105,364.69555 55.022342,364.69555"
         id="path2534"
         style="fill:#000000;fill-opacity:1;fill-rule:nonzero;stroke:none" />
      <path
         d="M 110.97093,367.10406 L 156.72891,367.10406 L 169.66887,439.92277 L 170.00425,439.92277 L 182.94421,367.10406 L 228.71617,367.10406 L 228.71617,490.01271 L 198.76981,490.01271 L 198.76981,398.44084 L 198.37155,398.44084 L 181.37912,490.01271 L 158.30099,490.01271 L 141.26664,398.44084 L 140.89633,398.44084 L 140.89633,490.01271 L 110.97093,490.01271 L 110.97093,367.10406 z"
         id="path2538"
         style="fill:#000000;fill-opacity:1;fill-rule:nonzero;stroke:none" />
      <path
         d="M 274.83195,466.98903 L 283.76136,466.98903 C 289.60251,466.98903 295.14322,461.79767 295.14322,451.82021 C 295.14322,442.32485 289.60251,437.02869 283.76136,437.02869 L 274.83195,437.02869 L 274.83195,466.98903 z M 274.83195,415.334 L 282.58056,415.334 C 289.09945,415.334 292.74667,409.48586 292.74667,402.93902 C 292.74667,396.05681 289.09945,390.1947 282.58056,390.1947 L 274.83195,390.1947 L 274.83195,415.334 z M 242.76154,367.1026 L 291.17459,367.1026 C 314.03612,367.1026 324.74023,379.36482 324.74023,397.7826 C 324.74023,410.82737 319.06677,422.5446 305.44208,425.31845 L 305.44208,425.66081 C 321.61703,427.21193 328.21977,440.98334 328.21977,453.71369 C 328.21977,475.06602 317.83007,490.01126 291.17459,490.01126 L 242.76154,490.01126 L 242.76154,367.1026 z"
         id="path2542"
         style="fill:#000000;fill-opacity:1;fill-rule:nonzero;stroke:none" />
      <path
         d="M 380.19821,392.26353 L 379.84188,392.26353 L 371.04522,444.39368 L 389.01583,444.39368 L 380.19821,392.26353 z M 359.90791,367.10327 L 400.15314,367.10327 L 430.12047,490.01193 L 396.00984,490.01193 L 392.73991,468.47793 L 367.26524,468.47793 L 364.01628,490.01193 L 329.94757,490.01193 L 359.90791,367.10327 z"
         id="path2546"
         style="fill:#000000;fill-opacity:1;fill-rule:nonzero;stroke:none" />
      <path
         d="M 470.86669,419.12308 L 477.28078,419.12308 C 486.35692,419.12308 490.65393,413.28194 490.65393,404.46432 C 490.65393,394.49384 486.70627,390.18984 477.03623,390.18984 L 470.86669,390.18984 L 470.86669,419.12308 z M 438.85916,367.10473 L 488.99102,367.10473 C 513.39668,367.10473 522.73832,380.88313 522.73832,399.83891 C 522.73832,416.18854 516.29629,426.82278 501.71438,429.10753 L 501.71438,429.44291 C 517.19762,430.81237 521.81604,440.57323 521.81604,457.01369 L 521.81604,467.47326 C 521.81604,473.84542 521.81604,482.08311 523.3951,484.54953 C 524.28944,485.87707 524.9602,487.28844 527.00041,488.29457 L 527.00041,490.01338 L 492.89677,490.01338 C 489.83645,483.50148 489.83645,471.77027 489.83645,466.6418 L 489.83645,458.32725 C 489.83645,444.39513 487.04164,440.76887 479.34195,440.76887 L 470.86669,440.76887 L 470.86669,490.01338 L 438.85916,490.01338 L 438.85916,367.10473 z"
         id="path2550"
         style="fill:#000000;fill-opacity:1;fill-rule:nonzero;stroke:none" />
      <path
         d="M 568.63326,466.98903 L 575.02638,466.98903 C 587.42834,466.98903 588.9585,461.79767 588.9585,428.56042 C 588.9585,395.38606 587.42834,390.1947 575.02638,390.1947 L 568.63326,390.1947 L 568.63326,466.98903 z M 536.60476,367.1026 L 583.05447,367.1026 C 620.09266,367.1026 621.99312,396.37821 621.99312,428.56042 C 621.99312,460.79853 620.09266,490.01126 583.05447,490.01126 L 536.60476,490.01126 L 536.60476,367.1026 z"
         id="path2554"
         style="fill:#000000;fill-opacity:1;fill-rule:nonzero;stroke:none" />
      <path
         d="M 634.87579,367.1012 L 666.86236,367.1012 L 666.86236,490.00986 L 634.87579,490.00986 L 634.87579,367.1012 z"
         id="path2556"
         style="fill:#000000;fill-opacity:1;fill-rule:nonzero;stroke:none" />
      <path
         d="M 681.27446,367.10406 L 754.05125,367.10406 L 754.05125,393.26346 L 713.21911,393.26346 L 713.21911,414.28041 L 751.45907,414.28041 L 751.45907,439.41272 L 713.21911,439.41272 L 713.21911,463.86728 L 755.60237,463.86728 L 755.60237,490.01271 L 681.27446,490.01271 L 681.27446,367.10406 z"
         id="path2560"
         style="fill:#000000;fill-opacity:1;fill-rule:nonzero;stroke:none" />
      <path
         d="M 799.31316,419.12308 L 805.67135,419.12308 C 814.83133,419.12308 819.11438,413.28194 819.11438,404.46432 C 819.11438,394.49384 815.15972,390.18984 805.53161,390.18984 L 799.31316,390.18984 L 799.31316,419.12308 z M 767.29864,367.10473 L 817.38159,367.10473 C 841.8711,367.10473 851.10794,380.88313 851.10794,399.83891 C 851.10794,416.18854 844.78468,426.82278 830.13989,429.10753 L 830.13989,429.44291 C 845.67204,430.81237 850.28347,440.57323 850.28347,457.01369 L 850.28347,467.47326 C 850.28347,473.84542 850.28347,482.08311 851.84157,484.54953 C 852.687,485.87707 853.42064,487.28844 855.41194,488.29457 L 855.41194,490.01338 L 821.37118,490.01338 C 818.27593,483.50148 818.27593,471.77027 818.27593,466.6418 L 818.27593,458.32725 C 818.27593,444.39513 815.48113,440.76887 807.73252,440.76887 L 799.31316,440.76887 L 799.31316,490.01338 L 767.29864,490.01338 L 767.29864,367.10473 z"
         id="path2564"
         style="fill:#000000;fill-opacity:1;fill-rule:nonzero;stroke:none" />
    </g>
  </g>
</svg>
