<?xml version="1.0" encoding="UTF-8" standalone="no"?>
<!-- Created with Inkscape (http://www.inkscape.org/) -->

<svg
   xmlns:dc="http://purl.org/dc/elements/1.1/"
   xmlns:cc="http://creativecommons.org/ns#"
   xmlns:rdf="http://www.w3.org/1999/02/22-rdf-syntax-ns#"
   xmlns:svg="http://www.w3.org/2000/svg"
   xmlns="http://www.w3.org/2000/svg"
   xmlns:sodipodi="http://sodipodi.sourceforge.net/DTD/sodipodi-0.dtd"
   xmlns:inkscape="http://www.inkscape.org/namespaces/inkscape"
   id="svg2"
   version="1.1"
   inkscape:version="0.48.3.1 r9886"
   width="577.50793"
   height="101.96712"
   xml:space="preserve"
   sodipodi:docname="HartHouse.svg"
   inkscape:export-filename="C:\Users\Marc\Documents\HPVDT Site\sponsors\HartHouse.png"
   inkscape:export-xdpi="90"
   inkscape:export-ydpi="90"><metadata
     id="metadata8"><rdf:RDF><cc:Work
         rdf:about=""><dc:format>image/svg+xml</dc:format><dc:type
           rdf:resource="http://purl.org/dc/dcmitype/StillImage" /><dc:title></dc:title></cc:Work></rdf:RDF></metadata><defs
     id="defs6"><clipPath
       clipPathUnits="userSpaceOnUse"
       id="clipPath20"><path
         d="m 0,1260 828,0 L 828,0 0,0 0,1260 z"
         id="path22"
         inkscape:connector-curvature="0" /></clipPath></defs><sodipodi:namedview
     pagecolor="#ffffff"
     bordercolor="#666666"
     borderopacity="1"
     objecttolerance="10"
     gridtolerance="10"
     guidetolerance="10"
     inkscape:pageopacity="0"
     inkscape:pageshadow="2"
     inkscape:window-width="1366"
     inkscape:window-height="716"
     id="namedview4"
     showgrid="false"
     fit-margin-top="10"
     fit-margin-left="10"
     fit-margin-right="10"
     fit-margin-bottom="10"
     inkscape:zoom="0.59936508"
     inkscape:cx="239.73666"
     inkscape:cy="-60.150149"
     inkscape:window-x="-8"
     inkscape:window-y="-8"
     inkscape:window-maximized="1"
     inkscape:current-layer="g10" /><g
     id="g10"
     inkscape:groupmode="layer"
     inkscape:label="hh_logo_black"
     transform="matrix(1.25,0,0,-1.25,-127.768,1159.3488)"><g
       id="g3031"
       inkscape:export-filename="C:\Users\Marc\Documents\HPVDT Site\sponsors\HartHouse.png"
       inkscape:export-xdpi="64.782074"
       inkscape:export-ydpi="64.782074"><g
         transform="translate(110.2144,919.479)"
         id="g12"><path
           id="path14"
           style="fill:#231f20;fill-opacity:1;fill-rule:nonzero;stroke:none"
           d="m 0,0 14.142,0 0,-24.68 26.03,0 0,24.68 14.142,0 0,-64.312 -14.142,0 0,27.742 -26.03,0 0,-27.742 L 0,-64.312 0,0 z"
           inkscape:connector-curvature="0" /></g><g
         id="g16"><g
           clip-path="url(#clipPath20)"
           id="g18"><g
             transform="translate(201.5449,877.9556)"
             id="g24"><path
               id="path26"
               style="fill:#231f20;fill-opacity:1;fill-rule:nonzero;stroke:none"
               d="m 0,0 c -2.162,-1.892 -6.665,-1.982 -10.628,-2.702 -3.964,-0.811 -7.566,-2.162 -7.566,-6.846 0,-4.774 3.693,-5.945 7.836,-5.945 C -0.36,-15.493 0,-7.566 0,-4.774 L 0,0 z m -29.543,9.458 c 0.72,11.979 11.439,15.582 21.887,15.582 9.278,0 20.447,-2.072 20.447,-13.241 l 0,-24.229 c 0,-4.234 0.45,-8.467 1.621,-10.359 l -12.971,0 c -0.45,1.442 -0.81,2.973 -0.9,4.504 -4.054,-4.234 -9.999,-5.765 -15.673,-5.765 -8.827,0 -15.853,4.414 -15.853,13.962 0,10.538 7.926,13.06 15.853,14.141 C -7.296,5.224 0,4.954 0,10.178 c 0,5.494 -3.783,6.305 -8.287,6.305 -4.863,0 -8.016,-1.982 -8.466,-7.025 l -12.79,0 z"
               inkscape:connector-curvature="0" /></g><g
             transform="translate(224.2402,901.7344)"
             id="g28"><path
               id="path30"
               style="fill:#231f20;fill-opacity:1;fill-rule:nonzero;stroke:none"
               d="m 0,0 12.16,0 0,-8.647 0.18,0 c 2.342,5.855 8.647,9.908 14.862,9.908 0.901,0 1.982,-0.18 2.792,-0.45 l 0,-11.89 c -1.171,0.27 -3.062,0.451 -4.593,0.451 -9.368,0 -12.61,-6.756 -12.61,-14.953 l 0,-20.986 L 0,-46.567 0,0 z"
               inkscape:connector-curvature="0" /></g><g
             transform="translate(279.5522,901.7344)"
             id="g32"><path
               id="path34"
               style="fill:#231f20;fill-opacity:1;fill-rule:nonzero;stroke:none"
               d="m 0,0 9.367,0 0,-8.557 -9.367,0 0,-23.058 c 0,-4.324 1.081,-5.405 5.404,-5.405 1.351,0 2.612,0.09 3.963,0.361 l 0,-9.998 c -2.161,-0.361 -4.953,-0.451 -7.475,-0.451 -7.837,0 -14.683,1.802 -14.683,11.079 l 0,27.472 -7.746,0 0,8.557 7.746,0 0,13.961 L 0,13.961 0,0 z"
               inkscape:connector-curvature="0" /></g><g
             transform="translate(296.3931,919.479)"
             id="g36"><path
               id="path38"
               style="fill:#231f20;fill-opacity:1;fill-rule:nonzero;stroke:none"
               d="m 0,0 14.142,0 0,-24.68 26.03,0 0,24.68 14.142,0 0,-64.312 -14.142,0 0,27.742 -26.03,0 0,-27.742 L 0,-64.312 0,0 z"
               inkscape:connector-curvature="0" /></g><g
             transform="translate(381.6885,863.5439)"
             id="g40"><path
               id="path42"
               style="fill:#231f20;fill-opacity:1;fill-rule:nonzero;stroke:none"
               d="m 0,0 c 8.738,0 11.35,7.476 11.35,14.862 0,7.476 -2.612,14.952 -11.35,14.952 -8.646,0 -11.258,-7.476 -11.258,-14.952 C -11.258,7.476 -8.646,0 0,0 m 0,39.452 c 14.682,0 24.141,-9.728 24.141,-24.59 0,-14.772 -9.459,-24.5 -24.141,-24.5 -14.592,0 -24.049,9.728 -24.049,24.5 0,14.862 9.457,24.59 24.049,24.59"
               inkscape:connector-curvature="0" /></g><g
             transform="translate(455.9053,855.167)"
             id="g44"><path
               id="path46"
               style="fill:#231f20;fill-opacity:1;fill-rule:nonzero;stroke:none"
               d="m 0,0 -12.158,0 0,6.485 -0.272,0 c -3.242,-5.224 -8.826,-7.746 -14.23,-7.746 -13.602,0 -17.024,7.656 -17.024,19.185 l 0,28.643 12.789,0 0,-26.301 c 0,-7.656 2.252,-11.439 8.198,-11.439 6.935,0 9.908,3.873 9.908,13.331 l 0,24.409 L 0,46.567 0,0 z"
               inkscape:connector-curvature="0" /></g><g
             transform="translate(473.5557,870.2993)"
             id="g48"><path
               id="path50"
               style="fill:#231f20;fill-opacity:1;fill-rule:nonzero;stroke:none"
               d="m 0,0 c 0.092,-5.584 4.775,-7.836 9.818,-7.836 3.694,0 8.377,1.44 8.377,5.944 0,3.873 -5.314,5.225 -14.502,7.206 -7.384,1.622 -14.771,4.233 -14.771,12.43 0,11.89 10.267,14.952 20.266,14.952 10.179,0 19.546,-3.423 20.537,-14.862 l -12.161,0 c -0.359,4.954 -4.142,6.305 -8.736,6.305 -2.883,0 -7.115,-0.54 -7.115,-4.323 0,-4.594 7.205,-5.224 14.502,-6.936 7.474,-1.711 14.771,-4.413 14.771,-13.06 0,-12.25 -10.629,-16.214 -21.257,-16.214 -10.809,0 -21.348,4.054 -21.887,16.394 L 0,0 z"
               inkscape:connector-curvature="0" /></g><g
             transform="translate(543.3604,883.4497)"
             id="g52"><path
               id="path54"
               style="fill:#231f20;fill-opacity:1;fill-rule:nonzero;stroke:none"
               d="M 0,0 C -1.172,6.485 -3.963,9.908 -10.178,9.908 -18.285,9.908 -20.627,3.603 -20.807,0 L 0,0 z m -20.807,-8.106 c 0.36,-8.107 4.323,-11.8 11.44,-11.8 5.133,0 9.277,3.153 10.088,6.035 l 11.258,0 C 8.377,-24.86 0.721,-29.544 -9.818,-29.544 c -14.682,0 -23.78,10.088 -23.78,24.5 0,13.961 9.639,24.59 23.78,24.59 15.853,0 23.509,-13.331 22.607,-27.652 l -33.596,0 z"
               inkscape:connector-curvature="0" /></g></g></g></g></g></svg>