<?xml version="1.0" encoding="UTF-8" standalone="no"?>
<!-- Created with Inkscape (http://www.inkscape.org/) -->

<svg
   xmlns:dc="http://purl.org/dc/elements/1.1/"
   xmlns:cc="http://creativecommons.org/ns#"
   xmlns:rdf="http://www.w3.org/1999/02/22-rdf-syntax-ns#"
   xmlns:svg="http://www.w3.org/2000/svg"
   xmlns="http://www.w3.org/2000/svg"
   xmlns:sodipodi="http://sodipodi.sourceforge.net/DTD/sodipodi-0.dtd"
   xmlns:inkscape="http://www.inkscape.org/namespaces/inkscape"
   width="1088.7423"
   height="232.50816"
   id="svg7719"
   version="1.1"
   inkscape:version="0.48.3.1 r9886"
   sodipodi:docname="PrattWhitney.svg"
   inkscape:export-filename="C:\Users\Marc\Documents\HPVDT Site\sponsors\PrattWhitney.png"
   inkscape:export-xdpi="90"
   inkscape:export-ydpi="90">
  <defs
     id="defs7721" />
  <sodipodi:namedview
     id="base"
     pagecolor="#ffffff"
     bordercolor="#666666"
     borderopacity="1.0"
     inkscape:pageopacity="0.0"
     inkscape:pageshadow="2"
     inkscape:zoom="0.24748737"
     inkscape:cx="791.82368"
     inkscape:cy="156.80502"
     inkscape:document-units="px"
     inkscape:current-layer="layer1"
     showgrid="false"
     fit-margin-top="10"
     fit-margin-left="10"
     fit-margin-right="10"
     fit-margin-bottom="10"
     inkscape:window-width="1366"
     inkscape:window-height="716"
     inkscape:window-x="-8"
     inkscape:window-y="-8"
     inkscape:window-maximized="1" />
  <metadata
     id="metadata7724">
    <rdf:RDF>
      <cc:Work
         rdf:about="">
        <dc:format>image/svg+xml</dc:format>
        <dc:type
           rdf:resource="http://purl.org/dc/dcmitype/StillImage" />
        <dc:title></dc:title>
      </cc:Work>
    </rdf:RDF>
  </metadata>
  <g
     inkscape:label="Layer 1"
     inkscape:groupmode="layer"
     id="layer1"
     transform="translate(138.65686,-190.39379)">
    <g
       transform="matrix(0,1.25,1.25,0,-200.08065,-1470.4659)"
       id="g7633"
       inkscape:export-filename="C:\Users\Marc\Documents\HPVDT Site\sponsors\PrattWhitney.png"
       inkscape:export-xdpi="33.684452"
       inkscape:export-ydpi="33.684452">
      <g
         transform="translate(1388.6541,129.86828)"
         id="g560">
        <path
           inkscape:connector-curvature="0"
           id="path562"
           style="fill:#2c438f;fill-opacity:1;fill-rule:evenodd;stroke:none"
           d="m 0,0 c 2.593,-6.389 5.614,-10.586 10.12,-14.521 3.873,-3.385 6.665,-5.598 11.002,-7.042 14.688,-4.888 29.649,1.213 36.53,7.92 4.515,4.401 8.126,10.354 9.681,16.725 3.119,12.777 -1.142,25.611 -7.041,32.566 C 55.031,41.85 45.629,47.107 37.849,47.971 27.953,49.068 20.382,46.08 15.403,43.129 8.484,39.027 4.138,34.674 0.88,27.727 -1.675,22.281 -2.605,15.23 -1.76,7.484 -1.36,3.822 -1.128,2.781 0,0 m -51.491,17.605 c 8.994,2.448 23.535,-0.652 32.567,1.758 -1.096,2.436 -4.56,2.742 -7.042,3.522 -7.227,2.269 -17.299,3.402 -23.324,7.482 -0.7,3.125 1.02,7.43 3.08,9.24 5.436,-1.361 11.106,-2.628 16.725,-3.959 5.39,-1.279 10.76,-3.324 15.84,-3.521 -1.583,2.439 -4.635,3.394 -7.038,4.842 -2.386,1.433 -4.636,3.019 -7.044,4.4 -4.85,2.781 -10.032,5.211 -14.082,8.803 0.203,4.346 2.489,6.605 4.84,8.803 11.69,-4.743 20.09,-12.774 32.127,-17.166 0.032,3.045 -3.127,4.886 -5.279,7.043 -4.296,4.293 -7.963,8.035 -12.765,13.201 -3.77,4.058 -8.178,6.506 -3.518,11.004 6.991,6.748 11.38,-6.735 17.161,-8.803 3.534,-4.391 7.184,-8.66 12.324,-11.443 -1.67,7.222 -7.275,15.066 -11.441,22.445 -1.528,2.701 -4.066,5.295 -3.963,7.043 0.184,3.127 4.195,4.918 7.923,5.721 C 2.813,79.975 5.759,67.666 13.642,60.293 13.516,70.883 7.397,81.619 7.04,91.979 c 1.03,2.638 4.903,2.431 8.363,2.64 3.95,-7.053 4.715,-17.289 7.919,-25.086 2.913,1.918 1.763,8.426 1.763,13.203 0,5.1 -0.459,10.207 0.879,13.645 3.312,1.269 11.25,1.488 14.522,0 1.33,-5.422 -0.12,-13.619 1.763,-18.485 1.792,1.297 2.779,5.434 3.519,8.362 0.811,3.199 0.597,6.666 2.639,8.803 4.811,0.355 11.299,-0.883 14.083,-3.963 -0.439,-6.328 -3.788,-12.022 -3.079,-18.041 4.415,3.945 6.238,10.482 10.122,14.963 5.891,-0.713 9.395,-3.807 12.765,-7.043 -0.717,-4.125 -3.506,-6.174 -4.402,-10.123 4.098,-0.346 5.296,6.019 9.24,6.162 4.319,0.158 6.308,-6.481 9.681,-9.243 -3.306,-6.08 -9.461,-9.316 -12.759,-15.4 6.853,0.186 11.111,6.781 18.044,8.359 3.307,-2.851 5.38,-6.939 7.039,-11.443 -4.124,-5.264 -12.247,-6.525 -16.283,-11.881 6.965,-0.926 12.223,3.604 19.803,3.522 1.322,-3.907 4.482,-8.01 3.079,-13.203 -5.098,-3.114 -14.202,-2.223 -18.041,-6.602 4.431,-2.904 14.857,0.188 19.806,-2.201 0.768,-3.194 0.657,-9.11 0,-12.322 -4.235,-3.395 -16.083,0.826 -20.246,-2.639 5.364,-3.586 14.934,-2.965 19.365,-7.483 -0.806,-4.773 -1.603,-9.546 -4.842,-11.882 -6.96,0.961 -11.81,4.031 -19.366,4.4 3.246,-6.436 12.249,-7.117 16.725,-12.322 -0.395,-3.342 -2.797,-9.969 -6.162,-10.561 -3.304,-0.584 -6.912,3.115 -10.563,5.28 -3.748,2.224 -7.416,4.304 -10.562,4.841 0.384,-3.328 4.39,-6.148 7.483,-9.242 2.872,-2.871 7.505,-6.562 7.48,-9.242 -0.032,-4.104 -5.464,-5.457 -7.92,-8.363 -8.331,4.138 -12.077,12.863 -20.244,17.166 0.559,-3.614 3.134,-7.631 5.721,-11.883 0.939,-1.545 1.928,-3.721 3.082,-5.723 1.243,-2.154 3.174,-3.828 3.078,-5.279 -0.233,-3.68 -6.265,-5.664 -10.559,-7.043 -3.389,3.814 -6.074,8.896 -8.802,13.644 -1.325,2.301 -2.145,5.2 -4.402,6.6 -2.183,-2.766 0.559,-5.603 1.319,-8.361 1.307,-4.729 1.983,-10.049 3.083,-14.963 -1.566,-2.985 -7.548,-3.887 -11.002,-3.52 -2.942,2.563 -3.295,7.508 -4.403,11.883 -1.086,4.285 -1.661,9.344 -4.839,11.442 -2.255,-6.696 -0.513,-17.387 -1.764,-25.086 -2.516,-1.327 -8.923,-1.327 -11.437,0 -1.415,10.031 0.751,23.638 -1.322,33.007 -2.094,-1.681 -2.382,-4.91 -3.084,-7.482 -1.459,-5.348 -2.946,-11.059 -4.399,-16.723 -0.632,-2.463 -1.125,-5.445 -3.08,-7.041 -3.308,-0.312 -9.122,0.514 -11.002,3.08 0.631,8.758 4.773,14.004 4.842,23.325 -6.345,-4.51 -7.812,-13.901 -13.204,-19.364 -2.804,-0.216 -9.031,2.584 -9.683,4.842 -1.181,4.096 5.028,10.83 7.483,14.961 3.426,5.77 6.113,10.459 7.481,14.965 -2.987,-0.254 -5.136,-2.982 -7.041,-4.842 -5.539,-5.408 -10.704,-12.096 -17.605,-16.723 -2.786,1.879 -7.363,3.743 -7.481,7.041 -0.1,2.844 6.662,8.788 9.684,11.883 4.168,4.27 8.602,7.237 10.12,11.002 -11.107,-2.244 -16.676,-10.021 -26.845,-13.203 -2.585,2.402 -5.193,4.783 -5.28,9.682 6.203,4.306 14.014,8.146 20.682,12.322 1.503,0.939 3.653,1.67 3.963,3.522 -8.978,0.289 -18.363,-4.166 -27.728,-6.163 -3.496,1.258 -4.223,6.93 -3.958,10.563 8.264,4.055 19.911,4.734 27.723,9.242 -7.931,2.484 -21.533,-0.703 -29.485,1.76 -0.083,0.357 -0.442,0.439 -0.441,0.881 0.154,2.927 -0.389,6.551 0.441,8.802" />
      </g>
      <g
         transform="translate(1405.8172,511.86438)"
         id="g564">
        <path
           inkscape:connector-curvature="0"
           id="path566"
           style="fill:#2c438f;fill-opacity:1;fill-rule:evenodd;stroke:none"
           d="M 0,0 C 3.835,2.219 4.424,10.299 0.44,11.004 -1.516,11.348 -3.257,8.674 -4.841,7.482 -6.846,5.975 -9.035,5.592 -9.682,3.521 -9.5,-1.234 -3.374,-1.951 0,0 m -32.567,8.363 c -0.431,4.465 -13.28,6.893 -11,-1.761 1.518,-5.774 11.478,-3.157 11,1.761 m 12.323,8.362 c 3.535,1.304 6.117,3.562 8.36,6.16 -0.462,2.91 -4.431,2.316 -5.72,4.398 -0.722,3.293 -0.722,9.475 0,12.766 4.306,1.611 7.733,0.158 11.443,-1.322 3.238,-1.291 6.613,-4.858 9.245,-4.84 4.465,0.029 6.664,6.482 11.879,6.599 0.682,-4.099 2.013,-9.99 0.881,-15.402 -0.535,-2.561 -2.956,-3.703 -3.082,-5.719 -0.147,-2.416 3.071,-6.056 3.961,-9.683 3.913,-15.946 -6.265,-29.34 -21.564,-27.725 -3.779,0.398 -7.92,1.941 -10.562,3.961 -2.905,2.219 -4.209,5.822 -7.481,7.922 -4.203,-1.088 -7.924,-4.643 -12.322,-5.281 -25.173,-3.664 -25.819,40.951 -1.762,39.166 7.217,-0.534 11.687,-6.539 16.724,-11" />
      </g>
      <g
         transform="translate(1411.0995,382.47958)"
         id="g568">
        <path
           inkscape:connector-curvature="0"
           id="path570"
           style="fill:#2c438f;fill-opacity:1;fill-rule:evenodd;stroke:none"
           d="M 0,0 C 0.598,5.484 -7.294,6.332 -12.763,5.281 -16.641,-4.117 -0.779,-7.109 0,0 m -44.89,-82.736 c 3.312,-1.405 11.651,-1.405 14.962,0 5.802,12.738 -20.876,12.998 -14.962,0 m 5.282,29.045 c 0.994,1.896 -1.999,2.644 -2.642,5.279 -0.582,2.389 -0.592,7.859 0,10.123 0.729,2.783 2.875,2.715 3.521,4.844 -1.593,3.886 -6.897,7.574 -3.961,13.201 2.603,1.068 7.659,-0.324 9.682,1.32 -2.223,3.453 -5.497,4.094 -7.48,7.043 -6.947,10.315 -3.058,30.002 6.599,33.006 9.052,2.814 25.879,0.162 36.089,0.879 2.696,0.189 5.022,1.342 7.481,0.439 C 10.368,19.672 11.616,13.08 10.562,9.242 9.913,6.885 8.281,6.904 7.479,5.281 7.91,2.658 10.535,1.125 11.44,-2.203 12.86,-7.408 11.372,-12.982 8.802,-16.723 4.298,-19.674 0.517,-21.1 -3.522,-21.125 c -3.157,-0.018 -10.467,1.811 -12.764,4.402 -4.272,4.823 -3.445,13.383 -6.159,18.483 -0.742,1.39 -2.883,3.902 -6.161,3.521 -2.471,-0.287 -4.062,-2.351 -3.96,-4.402 0.185,-3.803 4.117,-3.02 6.159,-5.721 0.84,-4.844 0.979,-12.683 -1.32,-15.842 0.759,-7.589 0.773,-12.701 8.363,-13.642 8.084,-1.008 21.503,1.111 29.045,-0.442 -0.082,-0.375 0.172,-0.414 0.438,-0.439 0.527,-4.324 1.157,-12.215 -0.438,-15.846 -12.905,-2.496 -31.521,0.719 -44.45,-1.76 5.469,-3.132 10.926,-3.664 14.525,-8.359 4.085,-5.334 3.161,-12.883 4.839,-21.125 5.814,-3.281 18.621,0.432 25.086,-2.199 1.634,-3.535 0.96,-11.611 0.438,-15.846 -4.919,-1.588 -10.688,-0.879 -16.281,-0.879 l -17.163,0 c -11.721,0 -23.992,-0.357 -34.327,0.44 -0.635,0.246 -1.076,0.685 -1.322,1.32 1.174,13.986 -2.796,29.445 3.522,37.846 3.68,4.894 8.866,6.015 15.844,7.924" />
      </g>
      <g
         transform="translate(1352.5672,591.96198)"
         id="g572">
        <path
           inkscape:connector-curvature="0"
           id="path574"
           style="fill:#2c438f;fill-opacity:1;fill-rule:evenodd;stroke:none"
           d="M 0,0 C 5.12,2.568 12.533,2.314 19.362,3.078 26.329,3.859 33.426,3.752 38.288,6.6 33.227,9.557 25.881,9.195 18.924,10.121 12.103,11.027 5.034,11.498 0,14.082 c -0.713,3.945 -0.713,10.574 0,14.523 5.697,2.231 12.865,2.958 19.803,3.958 6.914,1.003 14.089,1.744 20.245,3.523 -5.366,2.209 -12.642,2.805 -19.805,3.519 C 13.109,40.318 5.421,39.9 0,42.688 c -0.527,4.32 -1.156,12.21 0.439,15.841 5.665,-0.175 11.652,-1.228 17.605,-2.199 5.776,-0.943 11.441,-2.293 17.163,-3.521 11.692,-2.51 24.259,-1.903 33.887,-7.041 -0.249,-5.62 0.525,-12.264 -0.443,-17.163 -10.282,-4.677 -26.706,-3.22 -38.285,-6.601 1.81,-2.541 5.594,-2.66 8.802,-3.08 3.23,-0.428 6.723,-0.799 10.121,-1.322 6.836,-1.055 14.068,-1.143 19.362,-3.52 C 69.164,8.928 69.846,0.053 68.213,-4.402 63.004,-6.189 57.105,-7.105 51.49,-7.924 34.68,-10.377 17.366,-14.461 0.88,-15.844 -1.562,-12.916 -0.363,-4.301 0,0" />
      </g>
      <g
         transform="translate(1352.1258,660.17298)"
         id="g576">
        <path
           inkscape:connector-curvature="0"
           id="path578"
           style="fill:#2c438f;fill-opacity:1;fill-rule:evenodd;stroke:none"
           d="m 0,0 c 0.27,4.572 -0.554,10.238 0.441,14.084 4.961,2.08 14.225,-0.143 19.363,1.76 -0.448,3.472 -3.838,5.855 -4.4,9.244 -1.369,8.246 3.586,15.213 11.003,16.281 5.785,0.834 14.231,0 22.003,0 7.729,0 15.397,0.666 20.683,-0.879 0.761,-4.185 0.685,-11.207 0,-15.402 -5.423,-1.549 -13.44,-0.883 -21.563,-0.883 -6.701,0 -17.861,1.748 -18.484,-3.959 -0.739,-6.779 11.639,-5.281 18.043,-5.281 8.383,0 16.389,0.689 22.004,-0.881 0.727,-4.008 0.727,-10.955 0,-14.963 -4.509,-2.25 -10.525,-1.322 -16.281,-1.322 l -34.767,0 C 11.836,-2.201 4.603,-2.766 1.321,-1.322 0.687,-1.074 0.246,-0.633 0,0" />
      </g>
      <g
         transform="translate(1352.5672,726.62608)"
         id="g580">
        <path
           inkscape:connector-curvature="0"
           id="path582"
           style="fill:#2c438f;fill-opacity:1;fill-rule:evenodd;stroke:none"
           d="m 0,0 c 2.245,2.037 9.461,1.693 12.321,0.441 0.656,-4.289 0.758,-11.13 0,-15.402 -3.51,-1.643 -11.097,-3.01 -12.762,1.32 C -1.845,-9.99 0.199,-4.537 0,0" />
      </g>
      <g
         transform="translate(1353.8856,429.12798)"
         id="g584">
        <path
           inkscape:connector-curvature="0"
           id="path586"
           style="fill:#2c438f;fill-opacity:1;fill-rule:evenodd;stroke:none"
           d="m 0,0 c 0.375,-0.082 0.417,0.172 0.44,0.439 3.589,1.108 9.593,-0.201 13.205,0.883 1.935,1.145 0.883,5.278 2.64,6.602 2.475,0.549 6.81,0.773 9.24,0 1.834,-0.955 0.704,-4.875 2.202,-6.162 6.75,-1.649 18.07,-0.946 25.524,-0.44 2.645,1.022 2.522,4.811 4.4,6.602 2.721,0.582 7.581,0.902 9.682,-0.444 2.173,-5.746 1.348,-15.14 -0.879,-20.242 -7.138,-6.797 -26.102,-1.769 -37.847,-3.961 -2.25,-0.683 -1.378,-4.49 -3.52,-5.281 -2.081,-0.898 -6.197,-0.437 -8.361,0 -1.566,1.076 -1.485,3.797 -3.081,4.842 C 10.621,-15.053 2.993,-17.545 0,-15.404 -0.653,-11.113 -0.757,-4.27 0,0" />
      </g>
      <g
         transform="translate(1354.326,463.01478)"
         id="g588">
        <path
           inkscape:connector-curvature="0"
           id="path590"
           style="fill:#2c438f;fill-opacity:1;fill-rule:evenodd;stroke:none"
           d="m 0,0 c 2.8,2.041 9.743,-0.061 13.204,1.32 1.936,0.854 1.112,4.463 2.641,5.723 2.467,0.689 7.214,0.689 9.68,0 0.899,-1.596 0.701,-4.289 1.761,-5.723 5.362,0.721 19.021,-2.355 25.085,-0.441 3.403,1.078 2.544,4.289 4.84,6.164 2.424,0.699 7.872,0.904 9.682,-0.441 1.497,-6.235 2.298,-15.616 -0.879,-19.805 -5.394,-7.104 -25.9,-1.811 -37.407,-3.52 -2.442,-0.787 -1.832,-4.625 -3.961,-5.722 -1.565,-0.649 -5.94,-0.793 -7.481,0 -3.049,0.472 -2.259,4.787 -4.843,5.722 C 8.038,-16.314 1.86,-17.797 -0.44,-15.402 -0.914,-11.162 -1.628,-3.537 0,0" />
      </g>
      <g
         transform="translate(1354.326,756.11438)"
         id="g592">
        <path
           inkscape:connector-curvature="0"
           id="path594"
           style="fill:#2c438f;fill-opacity:1;fill-rule:evenodd;stroke:none"
           d="m 0,0 c 2.8,2.039 9.743,-0.063 13.204,1.318 1.936,0.854 1.112,4.465 2.641,5.721 2.467,0.69 7.214,0.69 9.68,0 0.899,-1.596 0.701,-4.285 1.761,-5.721 5.416,0.684 18.985,-2.314 25.085,-0.439 3.425,1.053 2.634,4.219 4.84,6.16 2.424,0.699 7.872,0.908 9.682,-0.437 1.438,-5.95 2.301,-15.092 -0.439,-19.366 -5.064,-7.9 -26.375,-1.781 -37.847,-4.4 -2.263,-0.965 -2.16,-4.293 -3.961,-5.723 -2.5,0.287 -6.153,-0.576 -7.92,0.442 -2.548,0.681 -1.952,4.507 -4.404,5.281 C 8.921,-15.727 1.636,-18.172 -0.44,-15.402 -0.914,-11.162 -1.628,-3.539 0,0" />
      </g>
      <g
         transform="translate(1420.7801,813.32338)"
         id="g596">
        <path
           inkscape:connector-curvature="0"
           id="path598"
           style="fill:#2c438f;fill-opacity:1;fill-rule:evenodd;stroke:none"
           d="m 0,0 c 1.296,-3.719 1.752,-13.219 -0.44,-16.281 -6.233,-0.801 -13.847,-0.442 -22.003,-0.442 -5.778,0 -17.652,1.989 -17.165,-4.838 0.391,-5.511 12.528,-3.521 18.923,-3.521 8.387,0 16.113,0.793 21.123,-1.32 0.484,-4.137 1.221,-11.981 -0.438,-15.405 -3.643,-1.574 -8.053,-0.879 -12.322,-0.879 -12.143,0 -26.407,-0.361 -38.287,0.438 -2.274,4.441 -2.185,15.279 1.758,17.603 -7.619,9.543 -5.137,23.528 7.043,25.526 5.649,0.928 13.979,0 21.564,0 C -12.676,0.881 -5.073,1.541 0,0" />
      </g>
      <g
         transform="translate(1388.2137,837.09088)"
         id="g600">
        <path
           inkscape:connector-curvature="0"
           id="path602"
           style="fill:#2c438f;fill-opacity:1;fill-rule:evenodd;stroke:none"
           d="M 0,0 C 0.975,2.127 1.398,6.334 0,8.359 -2.256,9.195 -6.151,8.924 -7.92,7.92 -12.375,3.313 -6.478,-2.584 0,0 m 9.242,24.643 c 2.223,-6.286 -0.19,-17.204 1.319,-24.205 4.157,-2.192 12.705,-1.588 13.202,3.08 0.518,4.83 -4.46,4.742 -8.36,6.605 -0.514,4.027 -1.321,11.779 0.88,14.52 6.458,-0.913 11.972,-1.854 15.405,-6.602 4.655,-6.443 4.437,-20.516 0.878,-26.844 -0.959,-1.707 -4.825,-5.533 -7.041,-6.601 -11.117,-5.358 -36.867,-2.969 -42.687,5.281 -4.288,6.074 -5.499,22.732 0.878,29.486 4.152,4.397 16.376,7.485 25.526,5.28" />
      </g>
      <g
         transform="translate(1369.7303,727.06748)"
         id="g604">
        <path
           inkscape:connector-curvature="0"
           id="path606"
           style="fill:#2c438f;fill-opacity:1;fill-rule:evenodd;stroke:none"
           d="m 0,0 c 7.534,1.564 16.929,0.879 25.964,0.879 8.911,0 18.109,0.676 25.524,-0.879 0.528,-4.322 1.158,-12.213 -0.438,-15.846 -11.306,-1.564 -26.665,-0.877 -40.049,-0.877 -4.176,0 -8.612,-0.775 -11.442,1.758 C -0.972,-10.795 -1.539,-3.49 0,0" />
      </g>
      <g
         transform="translate(1370.2953,884.81358)"
         id="g608">
        <path
           inkscape:connector-curvature="0"
           id="path610"
           style="fill:#2c438f;fill-opacity:1;fill-rule:evenodd;stroke:none"
           d="m 0,0 c 8.162,2.986 19.89,2.406 28.166,5.281 -6.895,4.99 -21.59,2.178 -29.048,6.602 -0.526,4.297 -1.107,11.783 0.442,15.402 4.544,0.295 9.651,-1.377 14.961,-2.639 4.586,-1.095 9.251,-2.783 14.082,-3.962 4.895,-1.194 9.795,-2.538 14.525,-3.959 9.038,-2.721 20.498,-3.371 24.205,-11.002 2.28,-4.698 1.604,-11.664 0.438,-17.606 -2.102,-1.453 -7.811,-1.033 -10.561,-0.439 -1.779,2.177 -0.959,6.963 -3.521,8.361 -9.162,0.352 -18.772,-4.152 -27.285,-6.602 -4.587,-1.32 -9.074,-2.117 -13.641,-3.521 C 8.56,-15.375 3.903,-17.467 -0.44,-16.283 -1.887,-12.416 -1.962,-3.291 0,0" />
      </g>
      <g
         transform="translate(1449.3856,282.58118)"
         id="g612">
        <path
           inkscape:connector-curvature="0"
           id="path614"
           style="fill:#110f0d;fill-opacity:1;fill-rule:evenodd;stroke:none"
           d="m 0,0 0,617.441 c 0,2.577 -1.002,6.268 1.321,8.36 3.672,-0.852 2.585,-5.162 2.638,-7.481 1.162,-48.414 0,-99.318 0,-148.308 l 0,-454.61 c 0,-2.902 0.123,-6.554 0,-9.683 C 3.879,3.578 4.782,-0.539 1.321,-1.322 1.271,-0.49 -0.133,-1.018 0,0" />
      </g>
      <g
         transform="translate(1473.1512,709.90338)"
         id="g616">
        <path
           inkscape:connector-curvature="0"
           id="path618"
           style="fill:#110f0d;fill-opacity:1;fill-rule:evenodd;stroke:none"
           d="M 0,0 C 1.432,-3.953 -2.823,-3.842 -3.963,-7.041 -9.036,-21.316 17.338,-22.793 15.841,-9.24 15.307,-4.365 9.844,-4.816 10.12,0 c 1.843,2.682 5.724,-0.057 6.602,-0.881 3.536,-3.314 4.232,-12.43 1.76,-16.723 -2.701,-4.697 -12.1,-8.234 -19.362,-5.279 -1.589,0.645 -5.453,3.916 -6.603,6.16 C -10.656,-10.521 -8.857,1.174 0,0" />
      </g>
      <g
         transform="translate(1480.1922,291.38198)"
         id="g620">
        <path
           inkscape:connector-curvature="0"
           id="path622"
           style="fill:#110f0d;fill-opacity:1;fill-rule:evenodd;stroke:none"
           d="M 0,0 C 0.714,1.561 0.581,4.205 -0.44,5.279 -3.549,5.016 -6.361,4.453 -7.48,2.199 -5.791,0.736 -2.873,-1.096 0,0 M 12.322,14.082 C 12.659,9.346 7.577,10.025 5.279,7.92 4.482,4.963 3.744,1.471 4.4,-0.881 5.623,-5.26 11.901,-3.961 12.322,-8.363 11.895,-8.373 11.981,-8.9 11.881,-9.244 8.672,-10.717 4.59,-8.41 1.32,-7.043 c -1.806,0.756 -3.462,1.535 -5.281,2.201 -3.776,1.383 -7.236,3.006 -10.563,4.842 -0.378,0.354 -0.26,1.205 -0.878,1.318 -0.155,4.586 8.368,6.957 12.761,8.803 5.504,2.313 10.609,6.018 14.963,3.961" />
      </g>
      <g
         transform="translate(1467.4295,464.33508)"
         id="g624">
        <path
           inkscape:connector-curvature="0"
           id="path626"
           style="fill:#110f0d;fill-opacity:1;fill-rule:evenodd;stroke:none"
           d="m 0,0 c 2.374,-0.561 1.643,-4.223 1.759,-7.043 1.319,-3.965 22.918,1.848 22.885,-3.521 -0.032,-4.983 -19.066,-0.467 -22.443,-2.639 -0.954,-2.272 0.171,-6.625 -1.32,-8.361 -2.081,-0.321 -3.263,0.257 -3.521,1.759 l 0,11.444 C -2.64,-4.834 -3.744,-0.172 0,0" />
      </g>
      <g
         transform="translate(1465.2293,320.86438)"
         id="g628">
        <path
           inkscape:connector-curvature="0"
           id="path630"
           style="fill:#110f0d;fill-opacity:1;fill-rule:evenodd;stroke:none"
           d="m 0,0 c 3.276,5.896 15.026,0.293 20.684,3.523 3.884,2.217 3.607,7.573 0.879,11.444 -1.994,0.654 -4.739,1.137 -7.921,1.32 C 8.422,16.582 1.202,14.48 0,18.926 c 2.998,2.605 11.512,2.17 17.162,1.762 3.242,-0.235 7.384,-1.711 8.802,-3.52 4.05,-5.18 1.533,-15.684 -2.639,-18.047 C 18.454,-3.635 6.97,-1.832 1.321,-1.758 0.686,-1.51 0.246,-1.072 0,-0.439 L 0,0 z" />
      </g>
      <g
         transform="translate(1489.4354,420.32728)"
         id="g632">
        <path
           inkscape:connector-curvature="0"
           id="path634"
           style="fill:#110f0d;fill-opacity:1;fill-rule:evenodd;stroke:none"
           d="M 0,0 C 0.09,6.266 -15.094,6.744 -13.204,-0.879 -11.832,-6.418 -0.08,-5.279 0,0 m -24.206,7.48 c 2.461,2.6 8.133,1.76 13.202,1.76 4.959,0 10.787,0.682 13.642,-1.316 -0.167,-5.838 2.723,-10.762 -1.76,-14.967 -3.731,-3.5 -13.021,-3.285 -16.283,0.439 -1.997,2.286 -1.909,6.27 -1.319,10.565 -1.657,2.01 -7.951,-0.617 -7.482,3.519" />
      </g>
      <g
         transform="translate(1465.2293,573.03818)"
         id="g636">
        <path
           inkscape:connector-curvature="0"
           id="path638"
           style="fill:#110f0d;fill-opacity:1;fill-rule:evenodd;stroke:none"
           d="M 0,0 C 0.66,4.471 7.774,3.08 13.642,3.08 17.821,3.08 27.866,4.357 26.844,0 26.073,-3.299 16.83,-1.764 13.202,-1.764 7.505,-1.764 1.967,-2.701 0,0" />
      </g>
      <g
         transform="translate(1465.6678,372.35848)"
         id="g640">
        <path
           inkscape:connector-curvature="0"
           id="path642"
           style="fill:#110f0d;fill-opacity:1;fill-rule:evenodd;stroke:none"
           d="M 0,0 C 1.835,1.059 4.201,-0.307 3.083,-2.201 2.562,-2.707 1.523,-2.699 0.442,-2.643 -0.064,-2.123 -0.056,-1.084 0,0" />
      </g>
      <g
         transform="translate(1465.6678,507.90538)"
         id="g644">
        <path
           inkscape:connector-curvature="0"
           id="path646"
           style="fill:#110f0d;fill-opacity:1;fill-rule:evenodd;stroke:none"
           d="m 0,0 c 1.176,2.051 5.701,0.752 7.044,2.639 0.14,2.049 -0.879,2.937 -0.881,4.841 0.781,6.139 5.756,7.002 14.523,6.604 3.293,-0.152 6.543,0.154 6.161,-2.643 -3.967,-4.408 -16.725,1.418 -16.725,-5.72 0,-3.432 3.406,-4.043 7.043,-4.405 3.23,-0.316 8.61,1.549 9.24,-2.636 -1.631,-2.942 -7.308,-1.762 -11.881,-1.762 -4.709,0 -10.621,-0.34 -13.203,0.441 C 0.61,-2.768 0.564,-2.227 0,-2.201 L 0,0 z" />
      </g>
      <g
         transform="translate(1465.6678,625.84678)"
         id="g648">
        <path
           inkscape:connector-curvature="0"
           id="path650"
           style="fill:#110f0d;fill-opacity:1;fill-rule:evenodd;stroke:none"
           d="M 0,0 C -0.231,1.994 0.647,2.873 2.643,2.643 3.149,2.121 3.14,1.086 3.083,0 2.493,-0.627 0.59,-0.627 0,0" />
      </g>
      <g
         transform="translate(1466.9891,381.60068)"
         id="g652">
        <path
           inkscape:connector-curvature="0"
           id="path654"
           style="fill:#110f0d;fill-opacity:1;fill-rule:evenodd;stroke:none"
           d="M 0,0 C 0.852,2.959 5.093,2.535 7.041,4.4 9.248,4.553 9.201,2.451 11.002,2.201 17.844,1.047 20.546,3.729 25.084,4.84 29.854,-5.447 12.004,-0.1 7.48,-3.963 5.083,-2.545 1.064,-2.75 0,0" />
      </g>
      <g
         transform="translate(1492.5145,361.79598)"
         id="g656">
        <path
           inkscape:connector-curvature="0"
           id="path658"
           style="fill:#110f0d;fill-opacity:1;fill-rule:evenodd;stroke:none"
           d="m 0,0 c -1.245,-5.357 -12.38,-0.824 -15.845,-3.961 -1.006,-2.906 -0.809,-4.141 0,-5.281 2.818,-3.969 16.684,0.906 15.404,-4.842 -0.901,-4.049 -14.224,-0.986 -18.482,-1.32 -0.198,5.49 -3.772,13.074 1.319,16.281 1.951,1.23 5.623,0.883 9.244,0.883 2.913,0 7.363,0.847 8.36,-1.76" />
      </g>
      <g
         transform="translate(1479.3114,394.36048)"
         id="g660">
        <path
           inkscape:connector-curvature="0"
           id="path662"
           style="fill:#110f0d;fill-opacity:1;fill-rule:evenodd;stroke:none"
           d="M 0,0 C 1.291,1.527 1.291,6.4 0,7.924 -4.588,8.295 -4.742,-0.426 0,0 M 2.642,13.203 C 6.16,11.445 2.923,2.924 5.281,0 c 2.827,-0.535 4.763,1.83 4.843,3.961 0.118,3.209 -4.789,4.908 -3.522,7.484 8.576,2.848 8.254,-11.465 4.4,-14.965 -3.385,-3.076 -11.666,-3.427 -15.403,0 -5.406,4.958 -3.087,17.717 7.043,16.723" />
      </g>
      <g
         transform="translate(1479.3114,466.53628)"
         id="g664">
        <path
           inkscape:connector-curvature="0"
           id="path666"
           style="fill:#110f0d;fill-opacity:1;fill-rule:evenodd;stroke:none"
           d="M 0,0 C 1.015,1.316 1.887,7.336 -0.44,7.922 -3.781,8.938 -5.104,-0.381 0,0 M 3.08,13.641 C 5.904,11.182 2.995,2.996 5.281,0 8.274,-0.67 10.148,2.184 10.124,4.4 10.083,7.656 5.902,8.461 6.16,11.441 11.546,14.668 14.993,7.885 13.644,1.32 12.641,-3.555 5.301,-8.051 -1.76,-5.281 -9.739,-2.152 -9.334,14.994 3.08,13.641" />
      </g>
      <g
         transform="translate(1478.4315,499.54208)"
         id="g668">
        <path
           inkscape:connector-curvature="0"
           id="path670"
           style="fill:#110f0d;fill-opacity:1;fill-rule:evenodd;stroke:none"
           d="M 0,0 C 1.541,-4.381 -2.571,-3.939 -2.642,-7.48 -2.776,-14.279 10.826,-14.529 11.004,-7.922 11.114,-3.729 6.982,-5.691 7.04,0 15.702,1.496 16.211,-10.646 12.324,-14.521 8.67,-18.164 -0.981,-18.172 -4.401,-14.082 -7.923,-9.877 -6.718,0.721 0,0" />
      </g>
      <g
         transform="translate(1492.0731,541.79018)"
         id="g672">
        <path
           inkscape:connector-curvature="0"
           id="path674"
           style="fill:#110f0d;fill-opacity:1;fill-rule:evenodd;stroke:none"
           d="m 0,0 c -2.643,-4.287 -18.966,1.277 -15.842,-7.48 0.623,-1.745 2.401,-2.67 4.839,-3.081 3.62,-0.609 10.815,1.524 11.003,-2.203 0.232,-4.535 -15.668,-2.572 -18.481,-1.759 -0.973,7.101 -3.821,15.578 4.399,16.724 C -9.951,2.775 -1.591,3.191 0,0" />
      </g>
      <g
         transform="translate(1488.5545,612.64558)"
         id="g676">
        <path
           inkscape:connector-curvature="0"
           id="path678"
           style="fill:#110f0d;fill-opacity:1;fill-rule:evenodd;stroke:none"
           d="M 0,0 C -0.767,5.146 -13.958,5.756 -12.323,-1.76 -10.914,-8.242 0.944,-6.34 0,0 M -15.403,7.479 C -10.43,8.533 -0.803,9.01 4.84,8.361 7.199,8.09 10.565,5.432 11.441,3.52 13.272,-0.475 12.932,-8.854 6.159,-8.803 5.642,-5.684 12.006,1.994 4.84,3.078 2.784,1.395 4.618,-2.021 3.96,-4.402 2.671,-9.07 -5.775,-12.273 -11.443,-9.684 c -5.971,2.731 -4.927,9.778 -3.96,17.163" />
      </g>
      <g
         transform="translate(1479.7518,639.49128)"
         id="g680">
        <path
           inkscape:connector-curvature="0"
           id="path682"
           style="fill:#110f0d;fill-opacity:1;fill-rule:evenodd;stroke:none"
           d="M 0,0 C 0.539,1.961 1.032,6.619 -0.44,7.92 -5.025,8.383 -5.408,-1.061 0,0 M 3.081,12.76 C 5.173,9.865 2.675,2.381 4.841,-0.441 c 3.453,0.211 4.769,2.279 4.843,4.4 0.107,3.256 -4.871,5.092 -3.523,7.92 9.538,1.312 8.582,-13.334 3.079,-16.721 -9.664,-5.949 -21.635,5.229 -15.4,14.524 1.39,2.076 4.815,4.304 9.241,3.078" />
      </g>
      <g
         transform="translate(1477.9911,670.73548)"
         id="g684">
        <path
           inkscape:connector-curvature="0"
           id="path686"
           style="fill:#110f0d;fill-opacity:1;fill-rule:evenodd;stroke:none"
           d="m 0,0 c 1.149,-2.857 -4.943,-6.611 -0.88,-9.682 4.633,1.381 2.685,9.344 6.602,11.444 11.383,5.008 12.207,-19.114 2.64,-15.405 -0.323,3.346 6.874,7.37 0.879,10.561 C 4.006,-5.627 7.02,-15.465 -0.88,-14.523 c -1.242,0.148 -3.152,1.345 -3.96,2.638 C -7.149,-8.184 -6.461,1.557 0,0" />
      </g>
      <g
         transform="translate(1492.0731,763.15338)"
         id="g688">
        <path
           inkscape:connector-curvature="0"
           id="path690"
           style="fill:#110f0d;fill-opacity:1;fill-rule:evenodd;stroke:none"
           d="m 0,0 c -2.208,-5.566 -17.802,2.252 -15.842,-7.48 2.428,-4.467 13.918,0.128 16.283,-4.403 -1.453,-5 -11.918,-0.99 -15.844,-3.519 -4.392,-9.342 12.798,-3.639 15.844,-8.36 -1.68,-4.318 -15.46,-3.051 -19.363,-1.322 0.915,2.563 -1.358,5.486 -1.32,8.359 0.027,2.036 1.739,4.006 1.761,6.164 0.037,4.303 -3.57,8.27 0.877,11.444 0.619,0.437 3.766,1.185 4.842,1.318 C -8.686,2.709 -1.358,3.178 0,0" />
      </g>
      <g
         transform="translate(1488.5545,795.71978)"
         id="g692">
        <path
           inkscape:connector-curvature="0"
           id="path694"
           style="fill:#110f0d;fill-opacity:1;fill-rule:evenodd;stroke:none"
           d="M 0,0 C 3.059,3.271 -0.284,7.484 -3.962,7.924 -5.86,5.154 -4.676,-0.988 0,0 m 3.079,12.762 c 0.034,-6.707 4.486,-19.465 -5.28,-18.483 -6.498,0.655 -4.357,8.875 -7.922,13.203 -1.682,-0.445 -2.39,-1.505 -2.642,-2.64 -0.766,-3.473 4.31,-6.188 2.202,-8.799 -6.708,-0.6 -8.148,11.988 -3.522,15.4 4.398,3.245 11.861,0.397 17.164,1.319" />
      </g>
      <g
         transform="translate(1492.5145,828.72768)"
         id="g696">
        <path
           inkscape:connector-curvature="0"
           id="path698"
           style="fill:#110f0d;fill-opacity:1;fill-rule:evenodd;stroke:none"
           d="m 0,0 c -1.052,-4.703 -7.596,-2.023 -11.444,-2.639 -2.716,-0.437 -5.116,-1.261 -5.281,-3.963 -0.431,-7.205 11.109,-3.109 16.284,-6.16 0.367,-6.146 -14.122,-3.265 -18.043,-2.642 -1.875,7 -4.175,15.84 4.401,17.166 C -9.965,2.396 -2.516,2.348 0,0" />
      </g>
      <g
         transform="translate(1489.4354,557.63388)"
         id="g700">
        <path
           inkscape:connector-curvature="0"
           id="path702"
           style="fill:#110f0d;fill-opacity:1;fill-rule:evenodd;stroke:none"
           d="M 0,0 C 0.044,6.729 -15.727,7.373 -13.204,-1.32 -11.591,-6.887 -0.041,-5.822 0,0 m -16.724,-2.641 c -1.312,6.069 1.007,10.807 5.28,12.323 3.831,1.357 10.447,0.459 13.202,-3.08 2.536,-3.258 3.228,-9.649 -0.438,-13.645 -2.607,-2.838 -9.855,-3.414 -13.204,-2.199 -2.722,0.986 -4.271,3.965 -4.84,6.601" />
      </g>
      <g
         transform="translate(1489.4354,589.31948)"
         id="g704">
        <path
           inkscape:connector-curvature="0"
           id="path706"
           style="fill:#110f0d;fill-opacity:1;fill-rule:evenodd;stroke:none"
           d="M 0,0 C -0.011,5.766 -9.785,6.908 -13.204,2.643 -16.347,-7.471 0.012,-7.344 0,0 m -16.724,-2.641 c -1.129,5.215 0.535,9.637 3.52,11.442 2.808,1.701 9.542,2.154 13.204,-0.438 5.784,-4.101 3.855,-14.009 0,-16.722 -6.933,-4.879 -15.361,-0.586 -16.724,5.718" />
      </g>
      <g
         transform="translate(1489.4354,724.42688)"
         id="g708">
        <path
           inkscape:connector-curvature="0"
           id="path710"
           style="fill:#110f0d;fill-opacity:1;fill-rule:evenodd;stroke:none"
           d="M 0,0 C -0.657,5.459 -15.1,6.514 -13.204,-1.76 -11.641,-8.584 0.8,-6.666 0,0 m -16.724,-3.08 c -0.806,3.955 -0.092,7.684 1.758,9.682 2.462,2.654 10.153,3.33 13.644,1.761 5.063,-2.279 6.854,-9.789 3.52,-14.965 -3.156,-4.902 -12.402,-4.601 -15.844,-2.201 -1.332,0.932 -2.457,2.658 -3.078,5.723" />
      </g>
      <g
         transform="translate(1489.4354,778.11828)"
         id="g712">
        <path
           inkscape:connector-curvature="0"
           id="path714"
           style="fill:#110f0d;fill-opacity:1;fill-rule:evenodd;stroke:none"
           d="M 0,0 C 0.273,6.848 -15.602,7.031 -13.204,-0.881 -11.702,-5.836 -0.227,-5.584 0,0 m 3.079,-2.641 c 0.674,-2.849 6.421,-0.621 7.482,-3.082 -0.318,-4.724 -7.152,-3.08 -11.883,-3.08 -5.024,0 -10.647,-0.31 -14.083,0.44 -1.278,5.293 -3.061,10.763 -0.439,14.523 5.177,7.424 22.399,3.94 18.923,-8.801" />
      </g>
      <g
         transform="translate(1473.1512,371.91708)"
         id="g716">
        <path
           inkscape:connector-curvature="0"
           id="path718"
           style="fill:#110f0d;fill-opacity:1;fill-rule:evenodd;stroke:none"
           d="m 0,0 c 1.633,1.895 6.18,1.32 10.12,1.32 3.479,0 8.394,0.836 8.802,-2.201 C 16.174,-4.584 6.886,-1.75 1.318,-2.643 1.071,-2.006 0.634,-1.568 0,-1.318 L 0,0 z" />
      </g>
      <g
         transform="translate(1473.1512,627.60848)"
         id="g720">
        <path
           inkscape:connector-curvature="0"
           id="path722"
           style="fill:#110f0d;fill-opacity:1;fill-rule:evenodd;stroke:none"
           d="m 0,0 c 1.445,1.965 6.206,1.318 10.12,1.318 3.499,0 8.582,1.014 8.802,-2.201 C 16.797,-4.309 5.84,-2.307 1.318,-2.201 0.344,-2.443 0.691,-1.361 0,-1.322 L 0,0 z" />
      </g>
      <g
         transform="translate(1483.7127,841.92878)"
         id="g724">
        <path
           inkscape:connector-curvature="0"
           id="path726"
           style="fill:#110f0d;fill-opacity:1;fill-rule:evenodd;stroke:none"
           d="M 0,0 C -1.394,4.916 -10.262,2.354 -10.562,8.363 -8.368,10.859 -5.367,7.934 -2.2,6.602 2.797,4.5 6.967,3.908 11.88,1.32 c 3.595,-1.888 7.607,-5.043 2.644,-8.8 -2.37,1.646 -2.213,4.689 -4.842,5.279 C 4.903,-1.123 -5.741,-9.791 -10.562,-7.922 -10.605,-1.717 -3.053,-3.107 0,0" />
      </g>
    </g>
  </g>
</svg>
