<?xml version="1.0" encoding="UTF-8" standalone="no"?>
<!-- Created with Inkscape (http://www.inkscape.org/) -->

<svg
   xmlns:dc="http://purl.org/dc/elements/1.1/"
   xmlns:cc="http://creativecommons.org/ns#"
   xmlns:rdf="http://www.w3.org/1999/02/22-rdf-syntax-ns#"
   xmlns:svg="http://www.w3.org/2000/svg"
   xmlns="http://www.w3.org/2000/svg"
   xmlns:sodipodi="http://sodipodi.sourceforge.net/DTD/sodipodi-0.dtd"
   xmlns:inkscape="http://www.inkscape.org/namespaces/inkscape"
   id="svg2"
   version="1.1"
   inkscape:version="0.48.3.1 r9886"
   width="419.125"
   height="133.125"
   xml:space="preserve"
   sodipodi:docname="Primary Logo - Horizontal Red.pdf"><metadata
     id="metadata8"><rdf:RDF><cc:Work
         rdf:about=""><dc:format>image/svg+xml</dc:format><dc:type
           rdf:resource="http://purl.org/dc/dcmitype/StillImage" /><dc:title></dc:title></cc:Work></rdf:RDF></metadata><defs
     id="defs6"><clipPath
       clipPathUnits="userSpaceOnUse"
       id="clipPath18"><path
         d="m 0,0 1397,0 0,443.762 -1397,0 L 0,0 z"
         id="path20" /></clipPath></defs><sodipodi:namedview
     pagecolor="#ffffff"
     bordercolor="#666666"
     borderopacity="1"
     objecttolerance="10"
     gridtolerance="10"
     guidetolerance="10"
     inkscape:pageopacity="0"
     inkscape:pageshadow="2"
     inkscape:window-width="1366"
     inkscape:window-height="716"
     id="namedview4"
     showgrid="false"
     inkscape:zoom="1"
     inkscape:cx="-194.10089"
     inkscape:cy="247.52976"
     inkscape:window-x="-8"
     inkscape:window-y="-8"
     inkscape:window-maximized="1"
     inkscape:current-layer="g10" /><g
     id="g10"
     inkscape:groupmode="layer"
     inkscape:label="Primary Logo - Horizontal Red"
     transform="matrix(1.25,0,0,-1.25,0,133.125)"><g
       id="g12"
       transform="scale(0.24,0.24)"><g
         id="g14"><g
           id="g16"
           clip-path="url(#clipPath18)"><path
             d="m 952.086,221.965 c 0.035,1.019 -0.422,2.336 -1.316,3.039 -0.907,0.73 -1.903,0.867 -2.856,0.883 l -4.969,0 -38.246,-86.672 -9.953,46.43 c -0.586,4.074 -3.855,6.851 -7.734,6.636 l -6.43,0 -30.187,-52.566 0.296,82 c 0.024,1.098 -0.402,2.441 -1.371,3.203 -0.941,0.773 -1.996,0.953 -3.05,0.969 l -6.442,0 0,-98.524 8.215,0 0,0.012 c 0.047,0 0.117,-0.012 0.184,-0.012 2.402,-0.019 4.589,0.578 6.382,1.883 1.621,1.16 3.02,2.777 4.246,4.723 l 26.43,47.16 11.016,-53.766 c 0,0 6.687,0 6.847,0 0.067,0 0.153,0 0.207,0 4.497,0 8.258,2.621 10.227,7.082 l 37.992,85.465 c 0.281,0.699 0.496,1.164 0.512,2.055 z m 346.454,3.906 -40.67,0 c -18.98,-0.039 -20.99,-15.629 -21.07,-22.988 -0.01,-7.735 5.61,-13.903 8.41,-16.387 l 27.68,-27.117 c 3.29,-3.227 4.89,-7.035 4.89,-10.586 0,-5.996 -4.59,-10.906 -11.99,-10.875 -0.02,-0.039 -35.84,-0.051 -36.17,-0.148 -1.17,-0.215 -2.41,-1.758 -2.38,-2.989 l -0.11,0 0.11,-0.039 c 0,-0.047 0.01,-5.988 0.01,-7.398 l 40.23,0 c 18.99,0.066 21,15.636 21.09,22.976 0,0.035 -0.01,0.047 -0.01,0.067 0.02,10.183 -9.35,18.058 -9.41,18.082 l -26.25,25.832 c -3.28,3.226 -5.3,6.551 -5.32,10.121 0.02,6.027 4.6,10.902 11.98,10.902 0.05,0.02 36.27,0.055 36.58,0.141 l 0.09,-0.27 -0.08,0.27 c 1.18,0.219 2.44,1.762 2.4,2.98 0,0 -0.01,0.024 0,0.043 0,0.059 -0.01,5.985 -0.01,7.383 z m -290.16,-9.867 c -18.067,0.988 -38.72,-9.645 -45.817,-38.375 -6.989,-28.149 6.078,-41.82 23.789,-44.102 l 1.843,-0.086 c 18.265,-0.964 37.725,9.688 44.565,38.411 6.68,28.168 -6.41,42.316 -24.38,44.152 z m 34.94,-45.012 c -6.65,-27.996 -26.82,-50.094 -59.043,-47.617 l 0,0.023 c -29.972,3.461 -38.562,29.829 -32.226,55.098 6.972,27.981 27.082,50.082 58.829,47.617 l 0,-0.023 c 29.58,-3.453 38.42,-29.848 32.44,-55.098 z m 179.39,53.946 c -0.83,0.632 -1.76,0.753 -2.71,0.761 l -4.8,0 -50.7,-43.363 6.75,38.316 c 0.41,2.125 -0.61,3.571 -1.48,4.18 -0.9,0.695 -2.01,1.039 -3.09,1.039 l -4.88,0 -18.32,-98.508 10.84,0 8.02,43.602 40.15,-43.621 4.81,0 c 0.95,0.019 1.87,0.156 2.68,0.773 0.85,0.586 1.29,1.746 1.26,2.692 0,1.769 -1.44,3.55 -1.44,3.55 l -37.99,41.278 50.71,43.07 c 0,0 1.43,1.219 1.43,3.563 0.01,0.933 -0.4,2.062 -1.24,2.668 z m -101.79,-14.012 c -1.99,1.926 -5,2.836 -9.68,3.715 -1.22,0.226 -3.22,0.41 -5.51,0.519 -5.63,0.313 -22.39,0.067 -27.52,0.012 l -6.5,-35.832 c 3.86,-0.055 8.29,-0.113 11.4,-0.133 8.76,0 17.24,0.281 23.25,1.922 15.41,4.191 23.06,21.687 14.56,29.797 z m 9.96,5.945 c 4.38,-4.976 4.7,-14.242 3.46,-19.93 -1.52,-6.964 -8.14,-24.543 -32.97,-26.765 l 20.9,-35.817 c 0,0 1.44,-2.148 1.44,-3.55 0.02,-0.946 -0.41,-2.106 -1.25,-2.692 -0.84,-0.617 -1.74,-0.773 -2.67,-0.773 l -5.53,0 -24.52,42.254 -19.75,0.086 -7.67,-42.34 -10.84,0 18.33,98.527 25.31,0 c 14.96,0 28.09,-0.215 35.76,-9 z M 402.332,204.836 c -1.238,-7.93 1.199,-17.246 10.039,-23.422 l 31.492,-21.98 c 3.305,-2.282 4.938,-3.848 4.535,-6.516 -0.589,-3.672 -2.515,-5.168 -9.043,-5.168 l -36.628,0 c -3.911,0 -6.043,-1.914 -6.758,-6.332 l 0,-13.652 42.91,0 c 18.805,0 28.109,11.089 29.98,22.882 1.758,11.075 -1.968,18.993 -9.121,24.094 l -33.468,23.762 c -2.688,1.934 -3.356,2.934 -3.172,4.379 0.3,2.418 2.5,3.418 6.312,3.418 l 38.238,0 c 4.68,0 7.344,4.765 8.09,9.512 l 0,10.484 -50.574,0 c -11.215,0 -21.016,-10.027 -22.832,-21.461 z m 381.18,21.473 -53.02,0 -0.281,-1.586 c -1.227,-6.688 -0.676,-14.438 9.898,-14.438 l 39.278,0 c 15.566,0 21.511,-11.25 17.664,-32.371 -3.539,-19.34 -13.961,-34.117 -29.801,-34.117 l -21.297,0 10.113,55.422 -18.117,0 c -2.429,0 -4.113,-1.77 -4.402,-3.352 l -12.422,-68.086 41.535,0 c 30.672,0 52.043,14.43 58.676,50.848 5.113,27.976 -6.535,47.68 -37.824,47.68 z m -125.899,-82.524 -41.859,0 14.461,79.168 c 0.277,1.586 -0.902,3.344 -2.875,3.344 l -18.426,0 -17.984,-98.516 69.347,0 1.797,9.844 c 0.801,4.41 -0.679,6.16 -4.461,6.16 z m 52.176,82.524 -18.43,0 -17.988,-98.528 21.906,0 17.387,95.184 c 0.285,1.582 -0.898,3.344 -2.875,3.344 z M 539.41,209.414 c -19.984,0 -30.457,-11.609 -34.203,-34.48 -3.762,-22.891 2.898,-34.489 22.883,-34.489 19.98,0 30.437,11.598 34.203,34.489 3.758,22.871 -2.898,34.48 -22.883,34.48 z m 44.633,-34.48 c -4.598,-27.973 -23.527,-51.387 -58.727,-51.387 -35.211,0 -46.453,23.414 -41.867,51.387 4.594,27.972 23.539,51.363 58.739,51.363 35.203,0 46.449,-23.391 41.855,-51.363 z m -255.961,85.687 c -20.926,3.434 -58.363,4.77 -71.156,-14.844 -9.887,-15.156 8.797,-35.906 25.808,-56.015 13.629,-16.106 28.469,-31.489 22.411,-40.481 -4.942,-7.34 -36.649,-7.328 -47.571,-7.906 -13.273,-0.703 -32.367,-0.75 -35.703,-2.566 -2.996,-1.606 -4.668,-6.61 6.567,-8.621 9.007,-1.614 30.476,-4.907 53.132,-4.887 23.637,0 48.481,3.879 53.868,22.187 4.328,14.703 -10.676,30.457 -23.879,46.446 -14.446,17.492 -29.079,29.972 -27.848,42.363 0.945,9.633 19.848,10.187 51.219,10.742 6.527,0.117 19.519,0.434 17.011,5.582 -2.23,4.551 -11.941,6.059 -23.859,8 z M 231.586,216.98 c -13.426,9.208 -37.359,12.293 -57.059,11.27 -17.539,-0.934 -47.707,-6.504 -46.57,-12.055 1.063,-6 20.164,-4.136 28.91,-4.136 19.235,0 49.774,-1.188 54.582,-13.575 10.371,-26.714 -59.957,-74.668 -74.957,-70.066 -6.781,2.074 13.778,36.934 21.242,49.477 4.438,7.48 11.192,19.242 5.426,20.035 -6.445,0.89 -13.543,-10.176 -18.152,-16.563 -12.512,-17.34 -25.336,-36.265 -35.606,-55.715 -3.183,-6.007 -13.7262,-24.086 -10.1051,-26.4215 3.3751,-2.1719 19.4611,0.9105 39.9181,9.0275 64.324,25.469 93.281,58.644 101.035,86.066 2.719,9.653 -1.98,18.078 -8.664,22.656 z m -47.754,117.106 c -1.324,4.316 20.129,9.945 43.66,10.988 23.699,1.043 51.746,-3.676 56.969,-19.32 8.566,-25.625 -34.836,-62.992 -72.656,-81.344 -9.282,-4.496 -14.899,-5.734 -17.242,-5.418 -2.227,0.293 -2.579,2.379 -1.848,3.809 1.344,2.695 7.449,8.191 15.609,14.152 42.574,31.102 56.422,53.902 48.375,63.149 -5.156,5.925 -26.738,10.043 -49.148,10.043 -6.086,0 -22.074,-1.329 -23.719,3.941"
             style="fill:#f02d28;fill-opacity:1;fill-rule:nonzero;stroke:none"
             id="path22" /></g></g></g></g></svg>