<svg width="165" height="61" viewBox="0 0 165 61" fill="none" xmlns="http://www.w3.org/2000/svg">
<path d="M164.992 53.6484H56.2188V58.3139H164.992V53.6484Z" fill="#0072CE"/>
<path d="M127.971 46.1398V50.1483H116.867V34.9121H127.971V38.6313H122.858V40.4537H127.971V44.3175H122.858V46.1398H127.971Z" fill="#0072CE"/>
<path d="M67.6456 35.5674C67.6456 35.5674 66.4781 34.5467 63.0459 34.6211C59.6138 34.6954 56.1816 36.0798 56.1816 40.3073C56.1816 41.766 56.3265 44.0967 60.4915 44.4603C60.4915 44.4603 62.1724 44.3157 62.2428 45.4066C62.2428 45.4066 62.1682 46.353 60.4915 46.353C58.8148 46.353 56.6205 44.8942 56.2562 44.3859V49.1961C56.2562 49.1961 57.937 50.506 61.0049 50.506C64.0727 50.506 66.9211 49.1217 67.8692 47.2249C68.8173 45.3281 68.8918 43.2867 67.5048 41.9767C66.1179 40.6668 64.1596 40.6048 63.1246 40.3734C62.4663 40.2287 62.102 40.3734 62.102 39.4973C62.102 38.9849 62.8307 38.77 63.4889 38.77C64.1472 38.77 66.1179 38.9146 67.6539 40.0841V35.5674H67.6456Z" fill="#0072CE"/>
<path d="M160.251 34.9121H153.312L148.563 50.1483H154.699L155.192 47.5944L158.388 47.6068L158.864 50.1524H165L160.251 34.9121ZM155.912 43.6687L156.782 39.0156L157.651 43.6687H155.912Z" fill="#0072CE"/>
<path d="M138.528 50.1483H137.149L135.004 43.1315L134.992 50.1483H128.86V34.9121H136.507L138.528 41.2223L140.548 34.9121H148.199V50.1483H142.063L142.055 43.1315L139.91 50.1483H138.528Z" fill="#0072CE"/>
<path d="M164.996 60.0234H56.2266V60.6102H164.996V60.0234Z" fill="#0072CE"/>
<path d="M68.6758 42.6007C68.6758 38.336 71.5904 34.6582 77.5398 34.6582C83.4187 34.6582 86.4038 38.336 86.4038 42.6007C86.4038 46.8653 83.3442 50.5432 77.5398 50.5432C71.1516 50.5432 68.6758 46.8694 68.6758 42.6007ZM77.5398 45.8198C78.9929 45.8198 80.1687 44.3776 80.1687 42.6007C80.1687 40.8237 78.9929 39.3815 77.5398 39.3815C76.0866 39.3815 74.9108 40.8237 74.9108 42.6007C74.9108 44.3776 76.0907 45.8198 77.5398 45.8198Z" fill="#0072CE"/>
<path d="M92.6975 50.1469H86.7812V34.9355L95.8647 34.9562C98.8 34.9562 101.181 37.3323 101.181 40.2622C101.181 43.1921 98.8 45.5682 95.8647 45.5682H92.6975V50.1469ZM93.7905 41.5019C94.5315 41.5019 95.1319 40.9027 95.1319 40.163C95.1319 39.4233 94.5315 38.8241 93.7905 38.8241H92.623V41.5143L93.7905 41.5019Z" fill="#0072CE"/>
<path d="M113.804 43.7129L116.433 50.1511H110.479L108.773 46.0311C108.508 45.5972 108.144 45.5972 107.925 45.56V50.1511H101.789V34.9108L110.148 34.8984C113.766 34.8984 116.118 36.5183 116.118 40.1177C116.118 41.7665 115.302 43.0021 113.853 43.7046L113.804 43.7129ZM108.761 41.502C109.502 41.502 110.102 40.9028 110.102 40.1631C110.102 39.4234 109.502 38.8242 108.761 38.8242H107.813V41.5144L108.761 41.502Z" fill="#0072CE"/>
<path d="M18.8955 30.4482C17.8936 28.5473 16.2913 25.4687 16.5522 24.7662C17.1318 25.8406 18.9948 28.7209 20.2493 30.4482C20.2617 30.4648 20.27 30.4772 20.2824 30.4937C20.7875 31.1962 21.1394 31.783 21.3092 31.8863C20.2534 33.1178 15.5006 35.6923 10.9216 34.2583C10.9216 34.2583 12.9751 43.3083 12.7391 44.2174C12.7391 44.2174 7.72131 50.8664 8.22226 60.6189H17.728C18.1378 53.0607 21.835 49.0193 21.835 49.0193C21.835 49.0193 26.3849 52.4739 26.3228 60.6189H36.6234C38.0021 58.2469 37.4142 53.0318 37.4142 53.0318C37.7951 53.2674 39.7037 53.6765 40.1425 53.7054L40.1632 60.6148H48.9485C52.5753 49.197 52.3269 37.9403 48.7415 30.4896C47.1021 27.0845 44.767 24.4769 41.7862 23.0058C39.9976 24.2372 37.5508 24.3406 36.7269 24.3406C36.1101 29.9193 26.0454 25.9522 26.2525 25.4687C26.4553 24.9935 35.2738 28.5432 35.4642 24.1381C34.8349 24.0058 34.7438 23.667 34.9218 23.3322C35.0585 23.0719 38.9626 24.1794 42.2002 21.7206C45.2059 19.4354 45.4295 19.0717 46.2782 17.7659C51.5899 15.0426 54.4632 5.64143 46.6011 1.68672C48.7705 4.6166 48.4435 9.75317 46.7419 11.1293C46.5142 10.6458 46.0753 9.67879 46.0753 9.67879C46.0712 2.76528 40.7346 -1.28448 35.6257 0.368486C38.296 1.9512 40.2046 3.41407 40.8795 5.87285C39.1903 5.08356 38.1718 5.82326 36.9753 5.78607C35.0378 5.72821 35.4808 4.49676 34.8639 4.49676C34.276 4.49676 33.7378 5.41002 32.5744 5.59597C31.0177 5.84392 29.7591 5.26125 29.6391 5.74474C29.4321 6.60015 30.6534 8.10021 32.2225 8.83165C34.483 9.88541 38.383 9.29861 38.2671 10.9392C38.1511 12.5797 33.982 14.2782 25.9419 13.0467C20.2741 12.1789 16.3741 9.35646 15.4385 9.35646C14.4987 9.35646 12.7847 11.026 11.0375 11.7574C6.28469 13.7533 5.22896 13.2244 4.81495 13.5178C4.29744 13.8856 0.687259 22.2372 0.0662418 30.4482C0.037261 30.8202 0.0165604 31.1921 0 31.5599H7.15825C10.6194 33.6674 15.2356 34.4319 19.5786 31.6177C19.3302 31.2623 19.1729 30.9731 18.8955 30.4482Z" fill="#999999"/>
<path d="M18.8994 9.65479C19.3672 9.06799 21.5988 7.07617 21.5988 7.07617C21.5988 7.07617 23.5943 7.66297 25.0019 7.31172C25.5898 8.48119 27.8172 11.9979 28.5252 12.4648C25.8258 11.9979 21.8348 11.5268 18.8994 9.65479Z" fill="#999999"/>
<path d="M33.3364 18.5842C33.0011 18.9933 33.0466 19.7908 33.204 20.2826C33.5103 21.233 34.1852 21.233 34.4791 21.2206C34.6861 21.2082 44.9536 18.5263 45.0737 10.1788C45.1399 5.34807 42.4612 0.426376 37.4724 0.728041C41.8195 3.06285 42.6475 7.10434 42.2874 9.94743C41.4966 16.2122 33.4855 18.4106 33.3364 18.5842Z" fill="white"/>
<path d="M22.3732 20.1174C22.9445 20.1174 23.4123 19.6546 23.4123 19.0802C23.4123 18.5058 22.9486 18.043 22.3732 18.043C21.8018 18.043 21.334 18.5058 21.334 19.0802C21.334 19.6546 21.7977 20.1174 22.3732 20.1174Z" fill="white"/>
<path d="M47.0687 12.3766C48.7413 10.9427 49.5941 7.92605 48.6833 4.17383C51.3578 7.17395 51.1219 12.8023 46.8037 16.1247C47.0397 15.0999 47.2757 13.4593 47.0687 12.3766Z" fill="white"/>
<path d="M29.8329 4.49745C28.0071 3.72469 25.9992 3.29492 23.8919 3.29492C18.4062 3.29492 13.5996 6.1876 10.9209 10.5266L12.3285 9.86131C14.9616 6.3529 19.1639 4.08008 23.8919 4.08008C25.4651 4.08008 26.9804 4.33216 28.3963 4.79498L29.8329 4.49745Z" fill="#0072CE"/>
<path d="M34.1556 3.12469C31.2162 1.16593 27.6888 0.0253906 23.8882 0.0253906C15.9764 0.0253906 9.21975 4.98427 6.57422 11.9556L7.49332 11.7738C10.143 5.33966 16.4856 0.810547 23.8882 0.810547C27.3948 0.810547 30.6655 1.82712 33.4146 3.58339L34.1556 3.12469Z" fill="#0072CE"/>
<path d="M32.5043 3.94681C29.983 2.45502 27.0352 1.59961 23.8929 1.59961C17.0368 1.59961 11.1289 5.67003 8.4668 11.5215L9.49768 11.1992C12.1639 5.96756 17.6082 2.38477 23.8887 2.38477C26.5591 2.38477 29.0763 3.03355 31.2954 4.17823L32.5043 3.94681Z" fill="#0072CE"/>
</svg>
