<svg enable-background="new 0 0 312.5 69.3" viewBox="0 0 312.5 69.3" xmlns="http://www.w3.org/2000/svg"><path d="m25.5 46.6-16.3 22.7h12.1l10.6-14.1z" fill="#1392d1"/><path d="m66.2 59.5-18.8-24.9 18.7-24.8-7.3-9.7-18.2 25.4-19.1-25.5h-12.2l49.6 69.2z" fill="#1392d1"/><path d="m44.6 0-10.5 13.9 6.5 8.6 16.2-22.5z" fill="#245b86"/><path d="m44.7 69.3h12.2l-49.7-69.2-7.2 9.7 18.6 24.8-18.6 24.7 7.1 9.9 18.3-25.6z" fill="#245b86"/><g fill="#1392d1"><path d="m83.1 55.8c-5.7.1-11.1-2.2-15-6.4-1.8-2-3.2-4.3-4.1-6.8-1-2.6-1.5-5.3-1.5-8.1s.5-5.6 1.5-8.2c1-2.5 2.4-4.8 4.2-6.8s4.1-3.5 6.5-4.6c2.6-1.2 5.5-1.8 8.4-1.7 5.7-.1 11.1 2.2 15 6.4 1.8 2 3.3 4.3 4.2 6.8 1 2.6 1.5 5.4 1.5 8.2s-.5 5.5-1.5 8.1c-2 5.1-5.9 9.2-10.8 11.4-2.6 1.1-5.5 1.7-8.4 1.7zm-13.6-21.2c0 2 .3 4.1 1.1 6 .7 1.8 1.6 3.4 2.9 4.8 1.2 1.3 2.7 2.4 4.3 3.2 3.4 1.6 7.2 1.6 10.6 0 1.7-.8 3.1-1.9 4.4-3.3s2.3-3.1 2.9-4.9c.7-1.9 1.1-4 1.1-6s-.3-4-1.1-5.9c-.7-1.8-1.7-3.4-2.9-4.9-1.2-1.4-2.7-2.5-4.4-3.3s-3.5-1.2-5.3-1.2-3.7.4-5.3 1.2-3.1 1.9-4.3 3.3c-1.3 1.4-2.2 3.1-2.9 4.9-.7 2.1-1.1 4.1-1.1 6.1z"/><path d="m169.9 55h-6.9v-23c0-4.3-.7-7.5-2.1-9.5s-3.7-3.2-6.2-3.1c-2.8 0-5.5 1.1-7.6 3-2.3 2.1-3.9 4.8-4.8 7.8v24.8h-6.9v-23c0-4.4-.7-7.6-2-9.6-1.4-2-3.7-3.1-6.1-3-2.8 0-5.5 1.1-7.5 2.9-2.4 2.1-4.1 4.8-4.9 7.9v24.8h-6.9v-41h6.3v8.8c1.5-2.9 3.8-5.3 6.5-7s5.8-2.5 9-2.5c3-.2 5.9.8 8.2 2.8 2 1.9 3.4 4.4 3.7 7.2 3.7-6.7 8.9-10 15.6-10 2.1-.1 4.1.4 5.9 1.3 1.6.8 2.9 2.1 3.8 3.6 1 1.7 1.7 3.5 2 5.5.4 2.3.6 4.5.6 6.8z"/><path d="m195.3 55.8c-2.9 0-5.8-.5-8.5-1.7-2.5-1.1-4.7-2.6-6.6-4.6s-3.3-4.3-4.3-6.8c-1-2.6-1.5-5.4-1.5-8.2s.5-5.6 1.5-8.2c3.1-8 10.9-13.1 19.4-13 8.4-.1 16.1 5.1 19 13 1 2.5 1.5 5.2 1.4 7.9v1.6c0 .4-.1.7-.1 1.1h-34c.1 1.9.6 3.8 1.4 5.6.7 1.6 1.8 3.1 3.1 4.3 1.2 1.2 2.7 2.2 4.3 2.8 1.6.7 3.3 1 5.1 1 1.2 0 2.5-.2 3.7-.5s2.3-.8 3.4-1.4c1-.6 2-1.3 2.8-2.1s1.4-1.8 1.8-2.8l6 1.7c-.7 1.5-1.6 2.9-2.8 4.2s-2.6 2.4-4.1 3.3c-1.6 1-3.4 1.7-5.2 2.2-1.8.3-3.8.6-5.8.6zm14.1-24c-.1-1.9-.6-3.7-1.4-5.4-.8-1.6-1.8-3-3.1-4.2-4-3.6-9.6-4.7-14.6-2.7-1.6.6-3 1.6-4.3 2.8s-2.3 2.6-3 4.2c-.8 1.7-1.2 3.5-1.4 5.3z"/><path d="m242.2 52.9c-.4.2-1 .5-1.6.8-.7.3-1.5.6-2.3.9-.9.3-1.9.5-2.8.7-1 .2-2.1.3-3.2.3-2.3.1-4.6-.7-6.5-2.1-1.8-1.4-2.8-3.5-2.8-6.4v-27.7h-5.6v-5.4h5.6v-13.7h6.9v13.7h9.2v5.4h-9.2v25.4c0 1.3.5 2.5 1.5 3.3.9.7 2 1 3.1 1 1.3 0 2.5-.2 3.7-.7.8-.3 1.6-.6 2.3-1.1z"/><path d="m268.3 20c-3.2 0-6.4 1-9.1 2.7-2.6 1.6-4.6 4.1-5.6 7v25.3h-6.9v-41h6.4v9.5c1.3-2.7 3.2-5 5.6-6.9 2.1-1.7 4.7-2.7 7.3-3h1.3c.3 0 .6 0 .9.1z"/><path d="m279.8 62.8c.7.1 1.3.2 2 .2s1.2.1 1.6.1c.7 0 1.5-.2 2.1-.5.6-.4 1.1-1 1.5-1.7.5-.8 1.5-3.5 2.4-5.9l-17.3-41h7.1l14 34.8 12.7-34.8h6.6l-18.7 48.4c-.8 1.9-2 3.6-3.6 4.8-2 1.5-4.5 2.2-7 2.1-.5 0-1 0-1.5-.1-.6-.1-1.2-.2-1.8-.3z"/></g></svg>