<?xml version="1.0" encoding="UTF-8" standalone="no"?>
<!-- Created with Inkscape (http://www.inkscape.org/) -->

<svg
   xmlns:dc="http://purl.org/dc/elements/1.1/"
   xmlns:cc="http://creativecommons.org/ns#"
   xmlns:rdf="http://www.w3.org/1999/02/22-rdf-syntax-ns#"
   xmlns:svg="http://www.w3.org/2000/svg"
   xmlns="http://www.w3.org/2000/svg"
   xmlns:sodipodi="http://sodipodi.sourceforge.net/DTD/sodipodi-0.dtd"
   xmlns:inkscape="http://www.inkscape.org/namespaces/inkscape"
   width="838.61243"
   height="298.07126"
   id="svg5276"
   version="1.1"
   inkscape:version="0.48.3.1 r9886"
   sodipodi:docname="AeroVelo.svg"
   inkscape:export-filename="C:\Users\Marc\Documents\HPVDT Site\sponsors\AeroVelo.png"
   inkscape:export-xdpi="90"
   inkscape:export-ydpi="90">
  <defs
     id="defs5278" />
  <sodipodi:namedview
     id="base"
     pagecolor="#ffffff"
     bordercolor="#666666"
     borderopacity="1.0"
     inkscape:pageopacity="0.0"
     inkscape:pageshadow="2"
     inkscape:zoom="0.70710678"
     inkscape:cx="517.13703"
     inkscape:cy="120.64318"
     inkscape:document-units="px"
     inkscape:current-layer="layer1"
     showgrid="false"
     fit-margin-top="10"
     fit-margin-right="10"
     fit-margin-bottom="10"
     fit-margin-left="10"
     inkscape:window-width="1366"
     inkscape:window-height="716"
     inkscape:window-x="-8"
     inkscape:window-y="-8"
     inkscape:window-maximized="1" />
  <metadata
     id="metadata5281">
    <rdf:RDF>
      <cc:Work
         rdf:about="">
        <dc:format>image/svg+xml</dc:format>
        <dc:type
           rdf:resource="http://purl.org/dc/dcmitype/StillImage" />
        <dc:title></dc:title>
      </cc:Work>
    </rdf:RDF>
  </metadata>
  <g
     inkscape:label="Layer 1"
     inkscape:groupmode="layer"
     id="layer1"
     transform="translate(44.306225,-383.32658)">
    <g
       transform="matrix(0,-1.25,-1.25,0,1171.9034,1851.5022)"
       id="g5185"
       inkscape:export-xdpi="44.017498"
       inkscape:export-ydpi="44.017498"
       inkscape:export-filename="C:\Users\Marc\Documents\HPVDT Site\sponsors\AeroVelo.png">
      <g
         transform="translate(1068.9697,338.2676)"
         id="g824">
        <path
           inkscape:connector-curvature="0"
           id="path826"
           style="fill:#444141;fill-opacity:1;fill-rule:nonzero;stroke:none"
           d="m 0,0 -54.426,0 c 0,0 -13.859,-0.521 -13.859,9.393 0,9.912 13.859,9.39 13.859,9.39 l 54.426,0 0,28.186 -54.426,0 c 0,0 -40.816,0.256 -40.816,-37.576 0,-37.84 40.816,-37.582 40.816,-37.582 L 0,-28.189 0,0 z" />
      </g>
      <g
         transform="translate(1073.2393,357.0508)"
         id="g828">
        <path
           inkscape:connector-curvature="0"
           id="path830"
           style="fill:#444141;fill-opacity:1;fill-rule:nonzero;stroke:none"
           d="m 0,0 52.478,0 c 0,0 13.867,0.521 13.867,-9.391 0,-9.914 -13.867,-9.392 -13.867,-9.392 l -52.478,0 0,-28.19 52.478,0 c 0,0 40.823,-0.257 40.823,37.582 0,37.832 -40.823,37.577 -40.823,37.577 L 0,28.186 0,0 z" />
      </g>
      <path
         inkscape:connector-curvature="0"
         id="path832"
         style="fill:#444141;fill-opacity:1;fill-rule:nonzero;stroke:none"
         d="m 1073.384,428.637 92.562,0 0,28.184 -92.562,0 0,-28.184 z" />
      <g
         transform="translate(1069.1377,428.6367)"
         id="g834">
        <path
           inkscape:connector-curvature="0"
           id="path836"
           style="fill:#444141;fill-opacity:1;fill-rule:nonzero;stroke:none"
           d="m 0,0 0,28.184 -95.003,0 0,-65.502 26.093,0 L -68.91,0 0,0 z" />
      </g>
      <g
         transform="translate(1072.7852,476.2871)"
         id="g838">
        <path
           inkscape:connector-curvature="0"
           id="path840"
           style="fill:#444141;fill-opacity:1;fill-rule:nonzero;stroke:none"
           d="m 0,0 13.229,0 0,26.094 50.362,0 0,-36.27 28.972,0 0,64.463 L 0,54.287 0,0 z" />
      </g>
      <g
         transform="translate(1055.2168,502.3809)"
         id="g842">
        <path
           inkscape:connector-curvature="0"
           id="path844"
           style="fill:#444141;fill-opacity:1;fill-rule:nonzero;stroke:none"
           d="m 0,0 0,-26.094 13.321,0 0,54.287 -95.002,0 0,-64.463 28.963,0 0,36.27 L 0,0 z" />
      </g>
      <g
         transform="translate(1137.5195,769.645)"
         id="g846">
        <path
           inkscape:connector-curvature="0"
           id="path848"
           style="fill:#bd1e24;fill-opacity:1;fill-rule:nonzero;stroke:none"
           d="m 0,0 c 0,-7.829 -1.045,-20.879 -28.475,-20.879 -27.424,0 -28.478,13.05 -28.478,20.879 L 0,0 z m -64.738,-38.667 c 8.811,-6.348 22.494,-9.353 37.31,-9.353 36.045,0 55.379,14.615 55.379,48.02 l 0,28.186 -92.689,0 0,-66.853 z" />
      </g>
      <g
         transform="translate(1068.5352,734.7222)"
         id="g850">
        <path
           inkscape:connector-curvature="0"
           id="path852"
           style="fill:#bd1e24;fill-opacity:1;fill-rule:nonzero;stroke:none"
           d="m 0,0 0,63.109 -95.065,0 0,-28.186 80.977,0 0,-7.569 -80.977,-14.618 0,-28.183 92.99,18.007 C -1.46,1.663 -0.748,0.816 0,0" />
      </g>
      <g
         transform="translate(1073.3799,816.3848)"
         id="g854">
        <path
           inkscape:connector-curvature="0"
           id="path856"
           style="fill:#bd1e24;fill-opacity:1;fill-rule:nonzero;stroke:none"
           d="m 0,0 13.42,0 0,26.091 50.363,0 0,-36.27 28.968,0 0,64.461 L 0,54.282 0,0 z" />
      </g>
      <g
         transform="translate(1056.0049,842.4761)"
         id="g858">
        <path
           inkscape:connector-curvature="0"
           id="path860"
           style="fill:#bd1e24;fill-opacity:1;fill-rule:nonzero;stroke:none"
           d="m 0,0 0,-26.091 13.128,0 0,54.281 -94.814,0 0,-64.461 28.962,0 0,36.271 L 0,0 z" />
      </g>
      <g
         transform="translate(1072.1885,924.0845)"
         id="g862">
        <path
           inkscape:connector-curvature="0"
           id="path864"
           style="fill:#bd1e24;fill-opacity:1;fill-rule:nonzero;stroke:none"
           d="m 0,0 7.118,-0.952 8.158,-1.058 0,-1.576 L 7.118,-4.634 0,-5.588 l 0,-25.654 92.701,14.238 0,28.415 L 0,25.647 0,0 z" />
      </g>
      <g
         transform="translate(1067.9424,950.3867)"
         id="g866">
        <path
           inkscape:connector-curvature="0"
           id="path868"
           style="fill:#bd1e24;fill-opacity:1;fill-rule:nonzero;stroke:none"
           d="m 0,0 -94.942,14.581 0,-27.629 L 0,-25.735 0,0 z" />
      </g>
      <g
         transform="translate(1067.9424,917.9302)"
         id="g870">
        <path
           inkscape:connector-curvature="0"
           id="path872"
           style="fill:#bd1e24;fill-opacity:1;fill-rule:nonzero;stroke:none"
           d="m 0,0 -94.942,-12.695 0,-27.629 L 0,-25.741 0,0 z" />
      </g>
      <g
         transform="translate(1072.7813,555.3506)"
         id="g874">
        <path
           inkscape:connector-curvature="0"
           id="path876"
           style="fill:#444141;fill-opacity:1;fill-rule:nonzero;stroke:none"
           d="m 0,0 92.755,-14.134 0,27.406 L 0,25.667 0,0 z" />
      </g>
      <g
         transform="translate(1072.7813,588.062)"
         id="g878">
        <path
           inkscape:connector-curvature="0"
           id="path880"
           style="fill:#444141;fill-opacity:1;fill-rule:nonzero;stroke:none"
           d="m 0,0 92.755,12.395 0,27.4 L 0,25.659 0,0 z" />
      </g>
      <g
         transform="translate(1068.5352,581.5845)"
         id="g882">
        <path
           inkscape:connector-curvature="0"
           id="path884"
           style="fill:#444141;fill-opacity:1;fill-rule:nonzero;stroke:none"
           d="m 0,0 -8.435,1.127 -8.09,1.043 0,1.56 8.09,1.05 L 0,5.901 0,31.494 -8.642,29.843 -55.319,-17.156 0,-25.584 0,0 z" />
      </g>
      <g
         transform="translate(1073.2715,683.8169)"
         id="g886">
        <path
           inkscape:connector-curvature="0"
           id="path888"
           style="fill:#bd1e24;fill-opacity:1;fill-rule:nonzero;stroke:none"
           d="m 0,0 51.531,0 c 0,0 14.179,0.524 14.179,-9.396 0,-9.915 -14.179,-9.394 -14.179,-9.394 l -51.531,0 0,-28.185 51.531,0 c 0,0 41.738,-0.258 41.738,37.579 0,37.843 -41.738,37.579 -41.738,37.579 L 0,28.183 0,0 z" />
      </g>
      <g
         transform="translate(1058.5166,636.8423)"
         id="g890">
        <path
           inkscape:connector-curvature="0"
           id="path892"
           style="fill:#bd1e24;fill-opacity:1;fill-rule:nonzero;stroke:none"
           d="m 0,0 10.483,0 0,28.185 -39.132,0 L 0,0 z" />
      </g>
      <g
         transform="translate(1010.7676,683.8228)"
         id="g894">
        <path
           inkscape:connector-curvature="0"
           id="path896"
           style="fill:#bd1e24;fill-opacity:1;fill-rule:nonzero;stroke:none"
           d="m 0,0 c 0.229,0 0.383,-0.006 0.383,-0.006 l 57.849,0 0,28.183 -57.849,0 c 0,0 -12.046,0.065 -23.194,-5.731 L 0,0 z" />
      </g>
      <g
         transform="translate(945.0605,514.209)"
         id="g898">
        <path
           inkscape:connector-curvature="0"
           id="path900"
           style="fill:#bd1e24;fill-opacity:1;fill-rule:nonzero;stroke:none"
           d="M 0,0 112.718,108.211 -0.977,219.928 C 26.172,149.923 28.125,70.408 0,0" />
      </g>
    </g>
  </g>
</svg>
